<svg version="1.1" xmlns="http://www.w3.org/2000/svg" xmlns:xlink="http://www.w3.org/1999/xlink" width="47.75" height="35.36923" viewBox="0,0,47.75,35.36923"><g transform="translate(-296.125,-162.31538)"><g fill="none" stroke="#ffffff" stroke-width="1.5" stroke-linecap="round" stroke-linejoin="round" stroke-miterlimit="10"><g><path d="M310.80099,173.23327v4.91317h-4.91317v-4.91317zM318.17016,173.23327v4.91317h-4.91317v-4.91317zM325.53933,173.23327v4.91317h-4.91199v-4.91317zM332.90968,173.23327v4.91317h-4.91317v-4.91317zM340.27885,173.23327v4.91317h-4.91317v-4.91317zM310.80099,180.60244v4.91317h-4.91317v-4.91317zM318.17016,180.60244v4.91317h-4.91317v-4.91317zM325.53933,180.60244v4.91317h-4.91199v-4.91317zM332.90968,180.60244v4.91317h-4.91317v-4.91317zM340.27885,180.60244v4.91317h-4.91317v-4.91317zM310.80099,187.9716v4.91317h-4.91317v-4.91199zM332.90968,187.9716v4.91317h-19.65269v-4.91199zM340.27885,187.9716v4.91317h-4.91317v-4.91199z"/><path d="M343.125,194.87827c0.00031,0.54527 -0.21607,1.06831 -0.60152,1.45398c-0.38545,0.38567 -0.90837,0.60236 -1.45364,0.60236h-35.97301c-0.54527,0 -1.06819,-0.21669 -1.45364,-0.60236c-0.38545,-0.38567 -0.60184,-0.90872 -0.60152,-1.45398v-23.63849c0,-1.13503 0.92013,-2.05516 2.05516,-2.05516h35.97301c1.13503,0 2.05516,0.92013 2.05516,2.05516v23.63849"/><path d="M303.04167,190.81538h-4.11151c-1.13503,0 -2.05516,-0.92013 -2.05516,-2.05516v-23.63849c-0.00031,-0.54527 0.21607,-1.06831 0.60152,-1.45398c0.38545,-0.38567 0.90837,-0.60236 1.45364,-0.60236h35.97301c0.54527,0 1.06819,0.21669 1.45364,0.60236c0.38545,0.38567 0.60184,0.90872 0.60152,1.45398v4.06288"/></g></g></g></svg>