<svg width="459" height="282" xmlns="http://www.w3.org/2000/svg" xmlns:xlink="http://www.w3.org/1999/xlink" xml:space="preserve" overflow="hidden"><defs><clipPath id="clip0"><rect x="273" y="1255" width="459" height="282"/></clipPath></defs><g clip-path="url(#clip0)" transform="translate(-273 -1255)"><path d="M273 1255.33 405.456 1255.33 405.126 1255.66 451.039 1255.66 451.039 1537 335.099 1537 335.099 1347.46 273 1347.46ZM487.897 1255 659.331 1255C683.113 1255 701.17 1261.16 713.502 1273.49 725.834 1285.82 732 1303.87 732 1327.65L732 1363.31C732 1387.08 725.834 1405.14 713.502 1417.46 701.17 1429.79 683.113 1435.96 659.331 1435.96L583.028 1435.96 583.028 1449.82 721.099 1449.82 721.099 1537 485.915 1537 485.915 1428.03C485.915 1404.26 492.081 1386.2 504.413 1373.88 516.745 1361.55 534.802 1355.38 558.585 1355.38L634.887 1355.38 634.887 1342.18 487.897 1342.18Z" fill-rule="evenodd"/></g></svg>