<svg width="1030" height="1030" xmlns="http://www.w3.org/2000/svg" xmlns:xlink="http://www.w3.org/1999/xlink" xml:space="preserve" overflow="hidden"><g transform="translate(-2305 -723)"><path d="M2315.5 904.838C2315.5 810.211 2392.21 733.5 2486.84 733.5L3153.16 733.5C3247.79 733.5 3324.5 810.211 3324.5 904.838L3324.5 1571.16C3324.5 1665.79 3247.79 1742.5 3153.16 1742.5L2486.84 1742.5C2392.21 1742.5 2315.5 1665.79 2315.5 1571.16Z" stroke="#000000" stroke-width="20.625" stroke-miterlimit="8" fill="#FFFFFF" fill-rule="evenodd"/><path d="M2961.07 986.5C3072.34 986.5 3182.28 992.136 3290.64 1003.14L3327.5 1007.82 3327.5 1571.21C3327.5 1665.81 3250.79 1742.5 3156.16 1742.5L2489.84 1742.5C2395.21 1742.5 2318.5 1665.81 2318.5 1571.21L2318.5 1050.71 2470.18 1023.63C2630.24 999.18 2794.18 986.5 2961.07 986.5Z" stroke="#000000" stroke-width="4.58333" stroke-miterlimit="8" fill-rule="evenodd"/><path d="M2820.5 986C2971.57 986 3119.06 1001.3 3261.52 1030.44L3325 1045.09 3325 1570.71C3325 1665.31 3248.29 1742 3153.66 1742L2487.34 1742C2392.71 1742 2316 1665.31 2316 1570.71L2316 1045.09 2379.48 1030.44C2521.94 1001.3 2669.43 986 2820.5 986Z" stroke="#000000" stroke-width="10.3125" stroke-miterlimit="8" fill="#FFFFFF" fill-rule="evenodd"/><path d="M2822 1413 2847 1742 2797 1742Z" stroke="#000000" stroke-width="10.3125" stroke-miterlimit="8" fill-rule="evenodd"/><text font-family="HYZhuZiBanKeSi J,HYZhuZiBanKeSi J_MSFontService,sans-serif" font-weight="400" font-size="330" transform="matrix(1 0 0 1 2582.29 1325)">12</text></g></svg>