<svg width="1030" height="1030" xmlns="http://www.w3.org/2000/svg" xmlns:xlink="http://www.w3.org/1999/xlink" xml:space="preserve" overflow="hidden"><g transform="translate(-1079 -727)"><path d="M1089.5 908.838C1089.5 814.21 1166.21 737.5 1260.84 737.5L1927.16 737.5C2021.79 737.5 2098.5 814.21 2098.5 908.838L2098.5 1575.16C2098.5 1669.79 2021.79 1746.5 1927.16 1746.5L1260.84 1746.5C1166.21 1746.5 1089.5 1669.79 1089.5 1575.16Z" stroke="#000000" stroke-width="20.625" stroke-miterlimit="8" fill="#FFFFFF" fill-rule="evenodd"/><path d="M1206 1097.95C1206 1019.55 1269.55 956 1347.95 956L1838.05 956C1916.45 956 1980 1019.55 1980 1097.95L1980 1386.05C1980 1464.45 1916.45 1528 1838.05 1528L1347.95 1528C1269.55 1528 1206 1464.45 1206 1386.05Z" stroke="#000000" stroke-width="10.3125" stroke-miterlimit="8" fill="#00FFFF" fill-rule="evenodd"/><rect x="1356" y="956" width="473" height="572" stroke="#000000" stroke-width="10.3125" stroke-miterlimit="8" fill="#FFFFFF"/><path d="M1346.42 956 1593.5 1116.12 1840.58 956 1867.44 958.708C1913.64 968.164 1951.67 1000.07 1969.62 1042.53L1976 1074.13 1593.5 1322 1211 1074.13 1217.38 1042.53C1235.33 1000.07 1273.36 968.164 1319.56 958.708Z" stroke="#000000" stroke-width="10.3125" stroke-miterlimit="8" fill="#66CCFF" fill-rule="evenodd"/></g></svg>