<svg version="1.1" xmlns="http://www.w3.org/2000/svg" xmlns:xlink="http://www.w3.org/1999/xlink" width="83.07692" height="83.07692" viewBox="0,0,83.07692,83.07692"><defs><linearGradient x1="325.63787" y1="168.56183" x2="325.63787" y2="182.72361" gradientUnits="userSpaceOnUse" id="color-1"><stop offset="0" stop-color="#45b0e6"/><stop offset="1" stop-color="#66ccff"/></linearGradient><linearGradient x1="327.53445" y1="170.36385" x2="327.53445" y2="193.30218" gradientUnits="userSpaceOnUse" id="color-2"><stop offset="0" stop-color="#45b0e6"/><stop offset="1" stop-color="#66ccff"/></linearGradient><linearGradient x1="321.95466" y1="181.70662" x2="321.95466" y2="192.2846" gradientUnits="userSpaceOnUse" id="color-3"><stop offset="0" stop-color="#45b0e6"/><stop offset="1" stop-color="#66ccff"/></linearGradient><linearGradient x1="314.71888" y1="177.78019" x2="314.71888" y2="191.58314" gradientUnits="userSpaceOnUse" id="color-4"><stop offset="0" stop-color="#66ccff"/><stop offset="1" stop-color="#45b0e6"/></linearGradient><linearGradient x1="312.43042" y1="166.69786" x2="312.43042" y2="189.50189" gradientUnits="userSpaceOnUse" id="color-5"><stop offset="0" stop-color="#66ccff"/><stop offset="1" stop-color="#45b0e6"/></linearGradient><linearGradient x1="318.94666" y1="167.57052" x2="318.94666" y2="177.91569" gradientUnits="userSpaceOnUse" id="color-6"><stop offset="0" stop-color="#66ccff"/><stop offset="1" stop-color="#45b0e6"/></linearGradient><linearGradient x1="325.63787" y1="168.56183" x2="325.63787" y2="182.72361" gradientUnits="userSpaceOnUse" id="color-7"><stop offset="0" stop-color="#45b0e6"/><stop offset="1" stop-color="#66ccff"/></linearGradient><radialGradient cx="320" cy="180.00003" r="41.53846" gradientUnits="userSpaceOnUse" id="color-8"><stop offset="0" stop-color="#66ccff" stop-opacity="0.50196"/><stop offset="1" stop-color="#66ccff" stop-opacity="0"/></radialGradient></defs><g transform="translate(-278.46154,-138.46157)"><g stroke-miterlimit="10"><path d="M327.61671,170.4415c0.75651,2.80888 1.18981,6.07436 1.18981,9.55853c0,10.5101 -3.94282,19.03022 -8.80652,19.03022c-2.23814,0 -4.28128,-1.80421 -5.83493,-4.77629" fill="none" stroke="#66ccff" stroke-width="2"/><path d="M312.38896,189.57954c-0.76001,-2.8136 -1.19547,-6.08667 -1.19547,-9.57952c0,-10.5101 3.94282,-19.03022 8.80652,-19.03022c2.24385,0 4.2917,1.81342 5.84681,4.79906" fill="none" stroke="#66ccff" stroke-width="2"/><path d="M315.90546,168.55006c2.76373,0.81894 5.74068,2.13895 8.67967,3.93123c8.9732,5.4721 14.19459,13.27437 11.66229,17.42685c-1.12903,1.8514 -3.60876,2.66469 -6.80562,2.51254" fill="none" stroke="#66ccff" stroke-width="2"/><path d="M324.51573,191.57137c-2.88115,-0.80691 -6.01197,-2.16893 -9.10086,-4.05262c-8.9732,-5.4721 -14.19459,-13.27437 -11.66229,-17.42685c1.18206,-1.93835 3.84467,-2.73879 7.26072,-2.48473" fill="none" stroke="#66ccff" stroke-width="2"/><path d="M316.56276,180.00003c0,-1.89833 1.53891,-3.43724 3.43724,-3.43724c1.89833,0 3.43724,1.53891 3.43724,3.43724c0,1.89833 -1.53891,3.43724 -3.43724,3.43724c-1.89833,0 -3.43724,-1.53891 -3.43724,-3.43724z" fill="none" stroke="#39ace6" stroke-width="2"/><path d="M308.41416,177.91961c1.91668,-1.91562 4.28715,-3.78352 7.00071,-5.43832c8.9732,-5.4721 18.30025,-6.54186 20.83255,-2.38938c1.20645,1.97834 0.65296,4.78513 -1.2277,7.77367" fill="none" stroke="#66ccff" stroke-width="2"/><path d="M331.94973,181.71054c-1.97731,2.04453 -4.47664,4.04706 -7.3646,5.80822c-8.9732,5.4721 -18.30025,6.54186 -20.83255,2.38938c-1.25619,-2.0599 -0.60434,-5.01795 1.46703,-8.14416" fill="none" stroke="#66ccff" stroke-width="2"/><path d="M315.90669,168.56183c2.76373,0.81894 5.74069,2.13895 8.67968,3.93122c4.97461,3.03366 8.79614,6.78348 10.78269,10.23055" fill="none" stroke="url(#color-1)" stroke-width="2"/><path d="M327.61671,170.36385c0.75651,2.80888 1.18981,6.07436 1.18981,9.55853c0,5.2162 -0.97118,9.94223 -2.54413,13.3798" fill="none" stroke="url(#color-2)" stroke-width="2"/><path d="M331.91272,181.70662c-1.97731,2.04453 -4.47664,4.04706 -7.3646,5.80822c-4.37606,2.66864 -8.83627,4.29026 -12.55151,4.76976" fill="none" stroke="url(#color-3)" stroke-width="2"/><path d="M324.51696,191.58314c-2.88115,-0.80691 -6.01197,-2.16893 -9.10086,-4.05262c-4.7445,-2.89333 -8.44012,-6.43809 -10.4953,-9.75034" fill="none" stroke="url(#color-4)" stroke-width="2"/><path d="M312.38896,189.50189c-0.76001,-2.8136 -1.19547,-6.08666 -1.19547,-9.57951c0,-5.13809 0.94232,-9.80058 2.47387,-13.22451" fill="none" stroke="url(#color-5)" stroke-width="2"/><path d="M308.37714,177.91569c1.91668,-1.91562 4.28715,-3.78352 7.00071,-5.43832c5.01905,-3.06076 10.14882,-4.7442 14.13832,-4.90685" fill="none" stroke="url(#color-6)" stroke-width="2"/><path d="M315.90669,168.56183c2.73856,0.81148 5.68647,2.11494 8.59935,3.88236" fill="none" stroke="url(#color-7)" stroke-width="2"/><path d="M278.46154,180.00003c0,-22.94106 18.5974,-41.53846 41.53846,-41.53846c22.94106,0 41.53846,18.5974 41.53846,41.53846c0,22.94106 -18.5974,41.53846 -41.53846,41.53846c-22.94106,0 -41.53846,-18.5974 -41.53846,-41.53846z" fill="url(#color-8)" stroke="none" stroke-width="0"/></g></g></svg>