<svg version="1.1" xmlns="http://www.w3.org/2000/svg" xmlns:xlink="http://www.w3.org/1999/xlink" width="39.375" height="39.375" viewBox="0,0,39.375,39.375"><g transform="translate(-300.3125,-160.3125)"><g data-paper-data="{&quot;isPaintingLayer&quot;:true}" stroke-linecap="butt" stroke-linejoin="miter" stroke-dasharray="" stroke-dashoffset="0" style="mix-blend-mode: normal"><path d="M300.3125,197.92652c0,-6.89414 0,-31.86431 0,-35.77027c0,-1.00616 0.79709,-1.84375 1.76349,-1.84375c3.82147,0 28.67404,0 35.74022,0c1.1863,0 1.87129,0.8625 1.87129,1.89287c0,3.91709 0,28.49819 0,35.57692c0,1.20707 -0.80295,1.90521 -1.77514,1.90521c-3.81241,0 -28.42596,0 -35.625,0c-1.24991,0 -1.97486,-0.64268 -1.97486,-1.76098z" fill="#ffffff" fill-rule="nonzero" stroke="#000000" stroke-width="0" stroke-miterlimit="10"/><path d="M325.48577,170.51223c4.26985,0 8.48867,0.21692 12.64685,0.64044l1.41446,0.18013v21.68389c0,3.64099 -2.94365,6.59265 -6.57496,6.59265h-25.56923c-3.63131,0 -6.57496,-2.95166 -6.57496,-6.59265v-20.03313l5.82054,-1.04226c6.14211,-0.94104 12.43311,-1.42906 18.83732,-1.42906z" fill="#000000" fill-rule="evenodd" stroke="#000000" stroke-width="0" stroke-miterlimit="8"/><path d="M320.24523,170.5904c5.81442,0 11.49104,0.58886 16.97408,1.71041l2.44324,0.56385v20.23018c0,3.64099 -2.95242,6.59265 -6.59457,6.59265h-25.64548c-3.64214,0 -6.59457,-2.95166 -6.59457,-6.59265v-20.23018l2.44323,-0.56385c5.48303,-1.12155 11.15966,-1.71041 16.97409,-1.71041z" fill="#ffffff" fill-rule="evenodd" stroke="#000000" stroke-width="0" stroke-miterlimit="8"/><path d="M320.16708,186.94672l0.96221,12.66262h-1.9244z" fill="#000000" fill-rule="evenodd" stroke="#000000" stroke-width="0" stroke-miterlimit="8"/><path d="M311.96031,175.18463h4.71501l-0.01175,0.01175h1.63435v10.0148h-4.12709v-6.74702h-2.21053zM319.60995,175.17288h6.1025c0.84656,0 1.48933,0.21928 1.92831,0.65818c0.43898,0.43891 0.65846,1.08143 0.65846,1.92793v1.26937c0,0.84613 -0.21948,1.48902 -0.65846,1.92757c-0.43898,0.43891 -1.08175,0.65854 -1.92831,0.65854h-2.71615v0.49338h4.91489v3.10333h-8.37179v-3.87898c0,-0.84613 0.21948,-1.48902 0.65846,-1.92757c0.43898,-0.43891 1.08175,-0.65853 1.92836,-0.65853h2.7161v-0.46988h-5.23237z" fill="#000000" fill-rule="evenodd" stroke="none" stroke-width="1" stroke-miterlimit="10"/></g></g></svg>