<svg version="1.1" xmlns="http://www.w3.org/2000/svg" xmlns:xlink="http://www.w3.org/1999/xlink" width="43.33334" height="43.33332" viewBox="0,0,43.33334,43.33332"><defs><linearGradient x1="320.00001" y1="158.33336" x2="320.00001" y2="201.66669" gradientUnits="userSpaceOnUse" id="color-1"><stop offset="0" stop-color="#999999"/><stop offset="1" stop-color="#ffffff"/></linearGradient></defs><g transform="translate(-298.33333,-158.33335)"><g data-paper-data="{&quot;isPaintingLayer&quot;:true}" fill-rule="nonzero" stroke-linecap="butt" stroke-linejoin="miter" stroke-miterlimit="10" stroke-dasharray="" stroke-dashoffset="0" style="mix-blend-mode: normal"><path d="M298.33333,195.29586c0,-9.12202 0,-25.36976 0,-30.4902c0,-3.04072 3.49987,-6.47231 6.58374,-6.47231c5.10154,0 21.07599,0 30.19608,0c3.90511,0 6.55352,3.67284 6.55352,6.86446c0,5.07906 0,20.52881 0,29.60784c0,4.07094 -3.66244,6.86102 -6.84763,6.86102c-5.11066,0 -20.74518,0 -29.80392,0c-3.97348,0 -6.68178,-2.56535 -6.68178,-6.37082z" fill="url(#color-1)" stroke="none" stroke-width="0"/><path d="M303.41488,190.73531v-21.47059h33.17025v21.47059z" fill="#ffffff" stroke="#000000" stroke-width="2"/><path d="M303.41488,173.59418v-4.32946h33.17025v4.32946z" fill="#ffffff" stroke="#000000" stroke-width="2"/><text transform="translate(307.66983,185.93535) scale(0.27609,0.27609)" font-size="40" xml:space="preserve" fill="#000000" fill-rule="nonzero" stroke="#000000" stroke-width="2" stroke-linecap="butt" stroke-linejoin="miter" stroke-miterlimit="10" stroke-dasharray="" stroke-dashoffset="0" font-family="Sans Serif" font-weight="normal" text-anchor="start" style="mix-blend-mode: normal"><tspan x="0" dy="0">TEST</tspan></text></g></g></svg>