<svg version="1.1" xmlns="http://www.w3.org/2000/svg" xmlns:xlink="http://www.w3.org/1999/xlink" width="846.65226" height="689.5" viewBox="0,0,846.65226,689.5"><g transform="translate(106.65225,173.5)"><g data-paper-data="{&quot;isPaintingLayer&quot;:true}" fill-rule="nonzero" stroke-width="0" stroke-linecap="butt" stroke-linejoin="miter" stroke-miterlimit="10" stroke-dasharray="" stroke-dashoffset="0" style="mix-blend-mode: normal"><path d="M-106.65224,0c0,-89.19398 72.30602,-161.5 161.5,-161.5c89.19399,0 161.5,72.30602 161.5,161.5c0,89.19399 -72.30601,161.5 -161.5,161.5c-89.19398,0 -161.5,-72.30601 -161.5,-161.5z" fill="#80d4ff" stroke="#000000"/><path d="M-75.99997,360c0,-58.26603 47.23397,-105.5 105.5,-105.5c58.26605,0 105.5,47.23397 105.5,105.5c0,58.26603 -47.23397,105.5 -105.5,105.5c-58.26603,0 -105.5,-47.23397 -105.5,-105.5z" fill="#80d4ff" stroke="none"/><path d="M364.00004,-10.5c0,-90.02241 72.97758,-163 163,-163c90.02242,0 163,72.97759 163,163c0,90.02242 -72.97758,163 -163,163c-90.02242,0 -163,-72.97759 -163,-163z" fill="#80d4ff" stroke="none"/><path d="M428.00002,360c0,-86.15642 69.84358,-156 156,-156c86.15642,0 156,69.84358 156,156c0,86.15642 -69.84358,156 -156,156c-86.15642,0 -156,-69.84358 -156,-156z" fill="#80d4ff" stroke="none"/><path d="M-65.15225,0c0,-66.27417 53.72583,-120 120,-120c66.27417,0 120,53.72583 120,120c0,66.27417 -53.72583,120 -120,120c-66.27417,0 -120,-53.72583 -120,-120z" fill="#a6e1ff" stroke="#000000"/><path d="M-43.99997,360c0,-40.59292 32.90708,-73.5 73.5,-73.5c40.59294,0 73.5,32.90708 73.5,73.5c0,40.59292 -32.90708,73.5 -73.5,73.5c-40.59292,0 -73.5,-32.90708 -73.5,-73.5z" fill="#a6e1ff" stroke="none"/><path d="M407.00004,-10.5c0,-66.27416 53.72583,-120 120,-120c66.27417,0 120,53.72584 120,120c0,66.27417 -53.72583,120 -120,120c-66.27417,0 -120,-53.72584 -120,-120z" fill="#a6e1ff" stroke="none"/><path d="M471.00003,360c0,-62.40818 50.59182,-113 113,-113c62.40818,0 113,50.59182 113,113c0,62.40818 -50.59182,113 -113,113c-62.40818,0 -113,-50.59182 -113,-113z" fill="#a6e1ff" stroke="none"/><path d="M-19.30454,0c0,-40.95317 33.19911,-74.15228 74.15228,-74.15228c40.95317,0 74.15228,33.19911 74.15228,74.15228c0,40.95317 -33.19911,74.15228 -74.15228,74.15228c-40.95317,0 -74.15228,-33.19911 -74.15228,-74.15228z" fill="#d9f2ff" stroke="#000000"/><path d="M452.84776,-10.5c0,-40.95317 33.1991,-74.15228 74.15228,-74.15228c40.95318,0 74.15228,33.19911 74.15228,74.15228c0,40.95318 -33.1991,74.15228 -74.15228,74.15228c-40.95318,0 -74.15228,-33.19911 -74.15228,-74.15228z" fill="#d9f2ff" stroke="none"/><path d="M517.50002,360c0,-36.72694 29.77307,-66.5 66.50001,-66.5c36.72694,0 66.5,29.77307 66.5,66.5c0,36.72694 -29.77307,66.5 -66.5,66.5c-36.72694,0 -66.50001,-29.77307 -66.50001,-66.5z" fill="#d9f2ff" stroke="none"/><path d="M-12.99997,360c0,-23.4721 19.0279,-42.5 42.5,-42.5c23.47211,0 42.5,19.0279 42.5,42.5c0,23.4721 -19.0279,42.5 -42.5,42.5c-23.4721,0 -42.5,-19.0279 -42.5,-42.5z" fill="#d9f2ff" stroke="none"/></g></g></svg>