<svg version="1.1" xmlns="http://www.w3.org/2000/svg" xmlns:xlink="http://www.w3.org/1999/xlink" width="887.10927" height="499.41042" viewBox="0,0,887.10927,499.41042"><g transform="translate(123.21256,68.80029)"><g data-paper-data="{&quot;isPaintingLayer&quot;:true}" fill-rule="nonzero" stroke="#000000" stroke-width="0" stroke-linecap="butt" stroke-linejoin="miter" stroke-miterlimit="10" stroke-dasharray="" stroke-dashoffset="0" style="mix-blend-mode: normal"><path d="M-122.55123,205.39971l-0.66134,-204.50174c0,0 158.10364,108.93698 268.89184,89.51715c98.40547,-17.24929 158.86596,-142.82822 257.39491,-156.52443c133.04564,-18.49427 280.46327,64.39832 280.46327,64.39832l0.66134,204.50174c0,0 -119.19656,-87.5374 -232.14762,-70.8041c-108.87316,16.12918 -226.66869,162.67458 -298.598,162.90719c-114.22209,0.36939 -276.00438,-89.49414 -276.00438,-89.49414z" fill="#66ccff"/><path d="M-85.77873,272.36568l-0.66134,-204.50174c0,0 158.10364,108.93698 268.89184,89.51715c98.40547,-17.24929 158.86596,-142.82822 257.39491,-156.52443c133.04564,-18.49427 280.46327,64.39832 280.46327,64.39832l0.66134,204.50174c0,0 -119.19656,-87.5374 -232.14762,-70.8041c-108.87316,16.12918 -226.66869,162.67458 -298.598,162.90719c-114.22209,0.36939 -276.00438,-89.49414 -276.00438,-89.49414z" fill="#24b6ff"/><path d="M-42.85332,341.11485l-0.66134,-204.50174c0,0 158.10364,108.93698 268.89184,89.51715c98.40547,-17.24929 158.86596,-142.82822 257.39491,-156.52443c133.04564,-18.49427 280.46327,64.39832 280.46327,64.39832l0.66134,204.50174c0,0 -119.19656,-87.5374 -232.14762,-70.8041c-108.87316,16.12918 -226.66869,162.67458 -298.598,162.90719c-114.22209,0.36939 -276.00438,-89.49414 -276.00438,-89.49414z" fill="#1d92cc"/></g></g></svg>