<svg version="1.1" xmlns="http://www.w3.org/2000/svg" xmlns:xlink="http://www.w3.org/1999/xlink" width="116.22159" height="35.56442" viewBox="0,0,116.22159,35.56442"><g transform="translate(-4.42817,-319.4571)"><g data-paper-data="{&quot;isPaintingLayer&quot;:true}" fill-rule="nonzero" stroke-linecap="butt" stroke-linejoin="miter" stroke-miterlimit="10" stroke-dasharray="" stroke-dashoffset="0" style="mix-blend-mode: normal"><g><path d="M4.42817,349.14742c0,-7.50699 0,-20.02384 0,-24.13795c0,-2.5883 2.7642,-5.55237 6.0146,-5.55237c11.86681,0 83.65947,0 104.52456,0c3.5987,0 5.68243,3.11395 5.68243,5.79432c0,4.06259 0,16.00326 0,23.46964c0,3.69946 -2.59431,6.30046 -5.68243,6.30046c-11.60699,0 -83.70739,0 -104.76853,0c-3.65308,0 -5.77063,-2.40083 -5.77063,-5.8741z" fill-opacity="0.12549" fill="#a6a6a6" stroke="#000000" stroke-width="0"/><g stroke="none" stroke-width="0"><path d="M18.6428,342.56069v-12.67248h12.67248v12.67248z" fill="#52a3cc"/><path d="M17.04559,344.33328v-12.67248h12.67247v12.67248z" fill="#5cb8e6"/><path d="M15.44838,345.93049v-12.67248h12.67248v12.67248z" fill="#66ccff"/></g><text transform="translate(38.40857,340.85887) scale(0.30163,0.30163)" font-size="40" xml:space="preserve" fill="#000000" fill-rule="nonzero" stroke="none" stroke-width="1" stroke-linecap="butt" stroke-linejoin="miter" stroke-miterlimit="10" stroke-dasharray="" stroke-dashoffset="0" font-family="Sans Serif" font-weight="normal" text-anchor="start" style="mix-blend-mode: normal"><tspan x="0" dy="0">更多</tspan></text></g></g></g></svg>