<svg version="1.1" xmlns="http://www.w3.org/2000/svg" xmlns:xlink="http://www.w3.org/1999/xlink" width="128" height="128" viewBox="0,0,128,128"><g transform="translate(-256,-116)"><g data-paper-data="{&quot;isPaintingLayer&quot;:true}" fill-rule="nonzero" stroke="none" stroke-width="1" stroke-linecap="butt" stroke-linejoin="miter" stroke-miterlimit="10" stroke-dasharray="" stroke-dashoffset="0" style="mix-blend-mode: normal"><path d="M298.66667,185.68889h-7.11111l3.55556,-11.02222z" fill="#000000"/><path d="M363.73333,126.66667c6.04444,0 10.66667,4.62222 10.66667,10.66667v39.11111c0,6.04444 -4.62222,10.66667 -10.66667,10.66667h-39.11111v24.88889h-23.82222l-22.4,18.13333v-18.13333h-3.55556c-6.04444,0 -10.66667,-4.62222 -10.66667,-10.66667v-39.11111c0,-6.04444 4.62222,-10.66667 10.66667,-10.66667h46.22222v-7.11111h-14.22222v-17.77778h56.88889M311.11111,197.42222l-11.73333,-31.64444h-8.53333l-11.73333,31.64444h8.53333l2.13333,-5.68889h11.02222l1.77778,5.68889zM356.62222,169.33333c-2.13333,0 -4.26667,-0.35556 -6.75556,-1.06667c5.33333,-5.33333 8.17778,-12.8 7.82222,-20.26667l-0.35556,-3.55556h-11.73333v-7.11111h-7.11111v7.11111h-10.66667v7.11111h21.33333c-0.35556,5.33333 -2.84444,9.95556 -6.75556,13.15556c-2.48889,-2.13333 -4.62222,-4.62222 -5.68889,-7.82222h-7.46667c1.06667,4.26667 3.2,8.17778 6.4,11.37778c-2.48889,0.71111 -4.97778,1.06667 -7.46667,1.06667l0.35556,7.11111c4.97778,-0.35556 9.95556,-1.42222 14.22222,-3.55556c4.26667,2.13333 9.24444,3.55556 13.86667,3.55556v-7.11111" fill="#000000"/><path d="M256,116h128v128h-128z" fill="none"/></g></g></svg>