<svg version="1.1" xmlns="http://www.w3.org/2000/svg" xmlns:xlink="http://www.w3.org/1999/xlink" width="116.22159" height="35.56442" viewBox="0,0,116.22159,35.56442"><g transform="translate(-4.42817,-281.25792)"><g data-paper-data="{&quot;isPaintingLayer&quot;:true}" fill-rule="nonzero" stroke-linejoin="miter" stroke-miterlimit="10" stroke-dasharray="" stroke-dashoffset="0" style="mix-blend-mode: normal"><g><path d="M4.42817,310.94824c0,-7.50699 0,-20.02384 0,-24.13795c0,-2.58829 2.7642,-5.55237 6.0146,-5.55237c11.86681,0 83.65947,0 104.52456,0c3.5987,0 5.68243,3.11395 5.68243,5.79433c0,4.06258 0,16.00325 0,23.46963c0,3.69946 -2.59431,6.30046 -5.68243,6.30046c-11.60699,0 -83.70739,0 -104.76853,0c-3.65308,0 -5.77063,-2.40083 -5.77063,-5.8741z" fill-opacity="0.12549" fill="#a6a6a6" stroke="#000000" stroke-width="0" stroke-linecap="butt"/><g stroke="#66ccff" stroke-width="3"><path d="M25.78314,296.51311c0,-1.52766 1.23841,-2.76607 2.76608,-2.76607c1.52766,0 2.76606,1.23841 2.76606,2.76607c0,1.52766 -1.2384,2.76606 -2.76606,2.76606c-1.52766,0 -2.76608,-1.2384 -2.76608,-2.76606z" fill="#66ccff" stroke-linecap="butt"/><path d="M15.44838,293.74704l2.80108,2.80108l-2.73105,2.73105" fill="none" stroke-linecap="round"/><path d="M27.49041,303.25988c0,0 -2.32692,2.68215 -5.29426,2.67001c-2.86636,-0.01173 -4.74184,-2.67001 -4.74184,-2.67001" fill="none" stroke-linecap="round"/></g><text transform="translate(38.40857,302.65969) scale(0.30163,0.30163)" font-size="40" xml:space="preserve" fill="#000000" fill-rule="nonzero" stroke="none" stroke-width="1" stroke-linecap="butt" stroke-linejoin="miter" stroke-miterlimit="10" stroke-dasharray="" stroke-dashoffset="0" font-family="Sans Serif" font-weight="normal" text-anchor="start" style="mix-blend-mode: normal"><tspan x="0" dy="0">用户体验计划</tspan></text></g></g></g></svg>