<svg version="1.1" xmlns="http://www.w3.org/2000/svg" xmlns:xlink="http://www.w3.org/1999/xlink" width="39.375" height="39.375" viewBox="0,0,39.375,39.375"><defs><linearGradient x1="300.77308" y1="160.82023" x2="339.10501" y2="199.15216" gradientUnits="userSpaceOnUse" id="color-1"><stop offset="0" stop-color="#66ccff"/><stop offset="1" stop-color="#0066ff"/></linearGradient></defs><g transform="translate(-300.25967,-160.27043)"><g data-paper-data="{&quot;isPaintingLayer&quot;:true}" fill-rule="nonzero" stroke-linejoin="miter" stroke-miterlimit="10" stroke-dasharray="" stroke-dashoffset="0" style="mix-blend-mode: normal"><path d="M300.25967,197.88445c0,-6.89414 0,-31.86431 0,-35.77027c0,-1.00616 0.79709,-1.84375 1.76349,-1.84375c3.82147,0 28.67404,0 35.74022,0c1.1863,0 1.87129,0.8625 1.87129,1.89287c0,3.91709 0,28.49819 0,35.57692c0,1.20707 -0.80295,1.90521 -1.77514,1.90521c-3.81241,0 -28.42596,0 -35.625,0c-1.24991,0 -1.97486,-0.64268 -1.97486,-1.76098z" fill="url(#color-1)" stroke="#000000" stroke-width="0" stroke-linecap="butt"/><path d="M305.8125,175.05001c0,-4.76624 3.8638,-8.63004 8.63004,-8.63004c4.76624,0 8.63004,3.8638 8.63004,8.63004c0,4.76624 -3.8638,8.63004 -8.63004,8.63004c-4.76624,0 -8.63004,-3.8638 -8.63004,-8.63004z" fill="none" stroke="#ffffff" stroke-width="2.5" stroke-linecap="butt"/><path d="M305.8125,175.05001v19.3" fill="none" stroke="#ffffff" stroke-width="2.5" stroke-linecap="round"/><path d="M320.86525,194.35001l-4.54408,-10.66996" fill="none" stroke="#ffffff" stroke-width="2.5" stroke-linecap="round"/><path d="M323.07259,189.01503c0,-2.94643 2.38855,-5.33498 5.33498,-5.33498c2.94643,0 5.33498,2.38855 5.33498,5.33498c0,2.94643 -2.38855,5.33498 -5.33498,5.33498c-2.94643,0 -5.33498,-2.38855 -5.33498,-5.33498z" fill="none" stroke="#ffffff" stroke-width="2.5" stroke-linecap="butt"/><path d="M333.74253,183.68005v10.7" fill="none" stroke="#ffffff" stroke-width="2.5" stroke-linecap="round"/><path d="M328.17802,174.75162v-5.56452h5.56452v5.56452z" fill="#d9d9d9" stroke="#d9d9d9" stroke-width="2.5" stroke-linecap="butt"/><path d="M326.45654,176.24355v-5.56452h5.56452v5.56452z" fill="#ffffff" stroke="#ffffff" stroke-width="2.5" stroke-linecap="butt"/></g></g></svg>