<svg version="1.1" xmlns="http://www.w3.org/2000/svg" xmlns:xlink="http://www.w3.org/1999/xlink" width="640.00002" height="345.81993" viewBox="0,0,640.00002,345.81993"><defs><linearGradient x1="23.38183" y1="252.50516" x2="23.38183" y2="268.37205" gradientUnits="userSpaceOnUse" id="color-1"><stop offset="0" stop-color="#00aaff"/><stop offset="1" stop-color="#adfffb"/></linearGradient></defs><g transform="translate(0.00001,-14.18007)"><g data-paper-data="{&quot;isPaintingLayer&quot;:true}" fill-rule="nonzero" stroke-linejoin="miter" stroke-miterlimit="10" stroke-dasharray="" stroke-dashoffset="0" style="mix-blend-mode: normal"><path d="M0,351.21795c0,-50.38405 0,-301.41878 0,-328.78205c0,-4.75955 3.48927,-8.25583 8.65385,-8.25583c40.99567,0 551.06844,0 622.94872,0c5.46536,0 8.39744,3.43692 8.39744,8.12762c0,27.07277 0,276.40416 0,328.26923c0,6.05899 -3.37792,9.42308 -8.39744,9.42308c-40.43435,0 -550.66464,0 -623.07692,0c-5.54771,0 -8.52564,-3.12731 -8.52564,-8.78205z" fill="#e6e6e6" stroke="#000000" stroke-width="0" stroke-linecap="butt"/><path d="M125.35715,30.86538v325.76923" fill="none" stroke="#000000" stroke-width="2" stroke-linecap="round"/><path d="M4.23077,58.02623c0,-14.01953 11.36508,-25.38461 25.38462,-25.38461c14.01954,0 25.38462,11.36508 25.38462,25.38461c0,14.01954 -11.36508,25.38461 -25.38461,25.38461c-14.01953,0 -25.38461,-11.36508 -25.38461,-25.38461z" fill="#b3b3b3" stroke="#000000" stroke-width="0" stroke-linecap="butt"/><path d="M17.55017,45.96101c0,-6.66343 5.40179,-12.06522 12.06522,-12.06522c6.66343,0 12.06521,5.40178 12.06521,12.06522c0,6.66344 -5.40178,12.06522 -12.06521,12.06522c-6.66343,0 -12.06522,-5.40178 -12.06522,-12.06522z" fill="#e6e6e6" stroke="#999999" stroke-width="2" stroke-linecap="butt"/><path d="M8.84621,70.15808c4.2552,-6.979 10.85182,-10.98636 19.62369,-10.98636c9.56464,0 16.74843,4.88764 20.69166,12.93368c0.79251,1.61709 -9.65566,10.73946 -20.81829,10.29706c-11.03288,-0.43726 -20.60987,-10.41922 -19.49705,-12.24437z" fill="#e6e6e6" stroke="#999999" stroke-width="2" stroke-linecap="butt"/><path d="M132.68975,119.67269c0,-19.74721 0,-68.02344 0,-78.75895c0,-4.13735 3.37321,-8.09693 8.23102,-8.09693c34.56217,0 422.04367,0 482.25773,0c5.09194,0 7.84357,3.5843 7.84357,7.41504c0,10.44796 0,59.50128 0,79.44085c0,5.23171 -3.12629,8.45915 -7.67309,8.45915c-33.39949,0 -419.47291,0 -482.10024,0c-5.54921,0 -8.55898,-3.22891 -8.55898,-8.45915z" fill-opacity="0.12549" fill="#a6a6a6" stroke="#000000" stroke-width="0" stroke-linecap="butt"/><path d="M-0.00001,28.43537c0,0 0,-4.58101 0,-5.99948c0,-4.75955 3.48927,-8.25582 8.65385,-8.25582c40.99567,0 551.06846,0 622.94873,0c5.46536,0 8.39743,3.43691 8.39743,8.12762c0,1.43716 0,6.12768 0,6.12768z" fill-opacity="0.74902" fill="#66ccff" stroke="#000000" stroke-width="0" stroke-linecap="butt"/><g stroke="#000000" stroke-width="0" stroke-linecap="butt"><path d="M138.80886,98.20765c0,-14.14508 0,-45.96287 0,-54.11954c0,-3.723 3.61894,-7.54974 7.65269,-7.54974c12.6723,0 79.79043,0 102.00785,0c4.49199,0 7.14853,3.42911 7.14853,6.85738c0,7.80338 0,39.28795 0,54.00415c0,4.67009 -3.5963,7.65148 -7.6101,7.65148c-12.59692,0 -79.27684,0 -101.77706,0c-4.65744,0 -7.42191,-2.64229 -7.42191,-6.84373z" fill="#66ccff"/><path d="M138.80886,60.37855c0,0 0,-13.20965 0,-16.1565c0,-3.723 3.61894,-7.54974 7.65269,-7.54974c12.6723,0 79.79043,0 102.00785,0c4.49199,0 7.14853,3.42911 7.14853,6.85738c0,2.95405 0,16.84886 0,16.84886z" fill="#00aaff"/><path d="M255.61793,81.34514c0,0 0,13.20964 0,16.1565c0,3.723 -3.61895,7.54974 -7.6527,7.54974c-12.6723,0 -79.79042,0 -102.00785,0c-4.49199,0 -7.14853,-3.42911 -7.14853,-6.85738c0,-2.95405 0,-16.84886 0,-16.84886z" fill="#b3e5ff"/><path d="M187.24768,115.08787v-8.78697h19.93142v8.78697z" fill="#93bcd2"/><path d="M179.10366,121.08873v-4.71496h36.21946v4.71496z" fill="#86abbf"/></g><path d="M132.79331,252.91766c0,-24.55524 0,-99.16753 0,-113.03673c0,-4.33761 3.42049,-8.20118 7.83986,-8.20118c21.4372,0 189.35702,0 227.36679,0c4.89103,0 7.63101,3.86357 7.63101,8.20118c0,13.67963 0,86.45319 0,112.00207c0,5.55264 -3.32015,8.87466 -7.63101,8.87466c-21.07547,0 -187.42604,0 -226.84946,0c-5.3453,0 -8.35719,-2.9119 -8.35719,-7.84z" fill-opacity="0.12549" fill="#a6a6a6" stroke="#000000" stroke-width="0" stroke-linecap="butt"/><path d="M380.40586,252.14166c0,-14.08368 0,-87.96512 0,-112.5194c0,-4.98976 3.50007,-7.94252 8.02866,-7.94252c22.07918,0 195.83766,0 234.83632,0c4.96988,0 7.75123,4.01866 7.75123,8.71852c0,14.10546 0,86.09915 0,111.48474c0,5.55204 -2.78152,8.87466 -7.75123,8.87466c-38.87963,0 -211.68598,0 -234.31899,0c-4.79616,0 -8.54599,-4.08403 -8.54599,-8.616z" fill-opacity="0.12549" fill="#a6a6a6" stroke="#000000" stroke-width="0" stroke-linecap="butt"/><path d="M4.42816,119.92244c0,-7.50699 0,-20.02384 0,-24.13795c0,-2.5883 2.7642,-5.55237 6.0146,-5.55237c11.86681,0 83.65947,0 104.52456,0c3.5987,0 5.68243,3.11396 5.68243,5.79433c0,4.06258 0,16.00326 0,23.46964c0,3.69946 -2.59431,6.30046 -5.68243,6.30046c-11.607,0 -83.70739,0 -104.76853,0c-3.65308,0 -5.77063,-2.40083 -5.77063,-5.8741z" fill-opacity="0.12549" fill="#a6a6a6" stroke="#000000" stroke-width="0" stroke-linecap="butt"/><text transform="translate(38.40852,111.4944) scale(0.30163,0.30163)" font-size="40" xml:space="preserve" fill="#000000" fill-rule="nonzero" stroke="none" stroke-width="1" stroke-linecap="butt" stroke-linejoin="miter" stroke-miterlimit="10" stroke-dasharray="" stroke-dashoffset="0" font-family="Sans Serif" font-weight="normal" text-anchor="start" style="mix-blend-mode: normal"><tspan x="0" dy="0">主页</tspan></text><path d="M14.56421,115.95099v-9.85389h14.2049v9.85389z" fill="#000000" stroke="#000000" stroke-width="0" stroke-linecap="butt"/><path d="M12.01805,106.7044l10.18465,-6.9057l9.11258,6.9057z" fill="#000000" stroke="none" stroke-width="0" stroke-linecap="butt"/><path d="M25.36147,104.13909v-4.3404h1.79954v4.3404z" fill="#000000" stroke="#000000" stroke-width="0" stroke-linecap="butt"/><path d="M4.42816,157.82216c0,-7.50699 0,-20.02384 0,-24.13795c0,-2.58829 2.76421,-5.55237 6.0146,-5.55237c11.86681,0 83.65947,0 104.52456,0c3.5987,0 5.68243,3.11396 5.68243,5.79433c0,4.06259 0,16.00326 0,23.46963c0,3.69946 -2.59431,6.30046 -5.68243,6.30046c-11.60699,0 -83.70739,0 -104.76853,0c-3.65308,0 -5.77063,-2.40084 -5.77063,-5.8741z" fill-opacity="0.12549" fill="#a6a6a6" stroke="#000000" stroke-width="0" stroke-linecap="butt"/><path d="M13.20251,143.18638c0,-2.43004 1.96994,-4.39998 4.39998,-4.39998c2.43004,0 4.39998,1.96994 4.39998,4.39998c0,2.43004 -1.96994,4.39998 -4.39998,4.39998c-2.43004,0 -4.39998,-1.96994 -4.39998,-4.39998z" fill="none" stroke="#66ccff" stroke-width="2" stroke-linecap="butt"/><path d="M13.20251,153.02639v-9.84" fill="none" stroke="#66ccff" stroke-width="2" stroke-linecap="round"/><path d="M18.5603,147.58636l2.31677,5.44002" fill="none" stroke="#66ccff" stroke-width="2" stroke-linecap="round"/><path d="M22.60854,150.30637c0,-1.50222 1.21779,-2.72001 2.72001,-2.72001c1.50222,0 2.72002,1.21779 2.72002,2.72001c0,1.50222 -1.21779,2.72001 -2.72001,2.72001c-1.50222,0 -2.72001,-1.21779 -2.72001,-2.72001z" fill="none" stroke="#66ccff" stroke-width="2" stroke-linecap="butt"/><path d="M28.04856,153.0417v-5.45534" fill="none" stroke="#66ccff" stroke-width="2" stroke-linecap="round"/><text transform="translate(38.40855,149.53361) scale(0.30163,0.30163)" font-size="40" xml:space="preserve" fill="#000000" fill-rule="nonzero" stroke="none" stroke-width="1" stroke-linecap="butt" stroke-linejoin="miter" stroke-miterlimit="10" stroke-dasharray="" stroke-dashoffset="0" font-family="Sans Serif" font-weight="normal" text-anchor="start" style="mix-blend-mode: normal"><tspan x="0" dy="0">系统</tspan></text><g stroke-linecap="butt"><path d="M4.42816,196.03126c0,-7.50699 0,-20.02384 0,-24.13795c0,-2.58829 2.76421,-5.55237 6.0146,-5.55237c11.86681,0 83.65947,0 104.52456,0c3.5987,0 5.68243,3.11396 5.68243,5.79433c0,4.06259 0,16.00325 0,23.46963c0,3.69946 -2.59431,6.30046 -5.68243,6.30046c-11.60699,0 -83.70739,0 -104.76853,0c-3.65308,0 -5.77063,-2.40084 -5.77063,-5.8741z" fill-opacity="0.12549" fill="#a6a6a6" stroke="#000000" stroke-width="0"/><text transform="translate(38.40855,187.74271) scale(0.30163,0.30163)" font-size="40" xml:space="preserve" fill="#000000" fill-rule="nonzero" stroke="none" stroke-width="1" stroke-linecap="butt" stroke-linejoin="miter" stroke-miterlimit="10" stroke-dasharray="" stroke-dashoffset="0" font-family="Sans Serif" font-weight="normal" text-anchor="start" style="mix-blend-mode: normal"><tspan x="0" dy="0">个性化</tspan></text><g stroke="#000000" stroke-width="0"><g><path d="M31.09935,188.76306c-0.5891,1.77242 -3.92811,2.2848 -4.18165,2.26385c-1.82819,-0.15109 -2.6593,-1.9696 -4.27327,-2.00404c-2.45441,0.01575 -1.08876,3.21135 -3.43779,3.32477c-2.70531,0.13062 -8.41393,-5.8733 -7.07884,-9.89015c1.33508,-4.01685 6.66431,-5.86161 11.90316,-4.12037c5.23885,1.74124 8.40348,6.40909 7.0684,10.42595z" fill="#c57d00"/><path d="M19.2737,188.22104c0,0.78779 -0.83719,1.42641 -1.86992,1.42641c-1.03273,0 -1.86992,-0.63863 -1.86992,-1.42641c0,-0.78779 0.83719,-1.42641 1.86992,-1.42641c1.03273,0 1.86992,0.63863 1.86992,1.42641z" fill="#ff0000"/><path d="M16.84744,184.1103c0,0.78779 -0.83719,1.42642 -1.86992,1.42642c-1.03273,0 -1.86992,-0.63863 -1.86992,-1.42642c0,-0.78779 0.83719,-1.42641 1.86992,-1.42641c1.03273,0 1.86992,0.63863 1.86992,1.42641z" fill="#ffff00"/><path d="M19.2737,180.64863c0,0.78779 -0.83719,1.42642 -1.86992,1.42642c-1.03273,0 -1.86992,-0.63863 -1.86992,-1.42642c0,-0.78779 0.83719,-1.42641 1.86992,-1.42641c1.03273,0 1.86992,0.63863 1.86992,1.42641z" fill="#00ff1d"/><path d="M24.25639,180.33955c0,0.78779 -0.83719,1.42642 -1.86992,1.42642c-1.03273,0 -1.86992,-0.63863 -1.86992,-1.42642c0,-0.78779 0.83719,-1.42641 1.86992,-1.42641c1.03273,0 1.86992,0.63863 1.86992,1.42641z" fill="#66ccff"/><path d="M28.45985,182.68389c0,0.78779 -0.83719,1.42642 -1.86992,1.42642c-1.03273,0 -1.86992,-0.63863 -1.86992,-1.42642c0,-0.78779 0.83719,-1.42641 1.86992,-1.42641c1.03273,0 1.86992,0.63863 1.86992,1.42641z" fill="#6c3bff"/><path d="M30.11342,186.78341c0,0.9766 -1.03784,1.76829 -2.31809,1.76829c-1.28024,0 -2.31809,-0.79169 -2.31809,-1.76829c0,-0.9766 1.03784,-1.76828 2.31809,-1.76828c1.28024,0 2.31809,0.79168 2.31809,1.76828z" fill="#b83bff"/></g><g><path d="M22.89606,190.50082c-1.61455,1.84247 -4.45593,2.76531 -4.45593,2.76531c0,0 0.6384,-0.57965 0.57625,-1.97536c-0.05664,-1.27199 -0.18938,-1.51722 0.44188,-3.17478c1.01611,-1.26872 1.90398,-1.38152 3.04442,-0.72035c0.87124,0.5051 1.25898,0.15469 0.39338,3.10519z" fill="#ffffff"/><path d="M20.99568,192.05368c-1.31023,0.80799 -2.55555,1.21245 -2.55555,1.21245c0,0 0.6384,-0.57965 0.57625,-1.97536c-0.05664,-1.27199 2.64819,0.35042 1.9793,0.76291z" fill="#66ccff"/><path d="M20.41859,186.82961c1.35273,-2.71725 3.16151,-5.80921 5.62254,-9.67605c0.54859,-0.81793 2.49292,-0.29168 2.08019,1.07642c-1.41491,3.89225 -3.11002,7.01573 -4.28787,10.055c-0.73264,1.27554 -1.7005,1.54158 -2.65524,0.97337c-1.26497,-0.75284 -1.3055,-0.85416 -0.75962,-2.42874z" fill="#7d4229"/></g></g></g><g stroke-linecap="butt"><path d="M4.42817,234.61647c0,-7.50699 0,-20.02384 0,-24.13795c0,-2.58829 2.76421,-5.55237 6.0146,-5.55237c11.86681,0 83.65947,0 104.52456,0c3.5987,0 5.68243,3.11396 5.68243,5.79433c0,4.06259 0,16.00325 0,23.46963c0,3.69946 -2.59431,6.30046 -5.68243,6.30046c-11.60699,0 -83.70739,0 -104.76853,0c-3.65308,0 -5.77063,-2.40084 -5.77063,-5.8741z" fill-opacity="0.12549" fill="#a6a6a6" stroke="#000000" stroke-width="0"/><path d="M17.08071,219.29859c0,-2.53275 2.0532,-4.58595 4.58595,-4.58595c2.53275,0 4.58595,2.0532 4.58595,4.58595c0,2.53275 -2.0532,4.58595 -4.58595,4.58595c-2.53275,0 -4.58595,-2.0532 -4.58595,-4.58595z" fill="#e6e6e6" stroke="#999999" stroke-width="1"/><path d="M13.77236,228.49582c1.61739,-2.6527 4.12474,-4.17588 7.4589,-4.17588c3.63549,0 6.36603,1.85778 7.86484,4.91605c0.30123,0.61465 -3.67009,4.08204 -7.91297,3.91388c-4.19356,-0.1662 -7.83375,-3.96031 -7.41077,-4.65405z" fill="#e6e6e6" stroke="#999999" stroke-width="1"/><text transform="translate(38.40857,226.32792) scale(0.30163,0.30163)" font-size="40" xml:space="preserve" fill="#000000" fill-rule="nonzero" stroke="none" stroke-width="1" stroke-linecap="butt" stroke-linejoin="miter" stroke-miterlimit="10" stroke-dasharray="" stroke-dashoffset="0" font-family="Sans Serif" font-weight="normal" text-anchor="start" style="mix-blend-mode: normal"><tspan x="0" dy="0">账户</tspan></text></g><g><path d="M4.42816,272.66577c0,-7.50699 0,-20.02384 0,-24.13795c0,-2.58829 2.76421,-5.55237 6.0146,-5.55237c11.86681,0 83.65947,0 104.52456,0c3.5987,0 5.68243,3.11395 5.68243,5.79432c0,4.06259 0,16.00326 0,23.46964c0,3.69945 -2.59431,6.30046 -5.68243,6.30046c-11.60699,0 -83.70739,0 -104.76853,0c-3.65308,0 -5.77063,-2.40084 -5.77063,-5.8741z" fill-opacity="0.12549" fill="#a6a6a6" stroke="#000000" stroke-width="0" stroke-linecap="butt"/><path d="M15.44838,260.43861c0,-4.38153 3.55192,-7.93345 7.93344,-7.93345c4.38153,0 7.93345,3.55192 7.93345,7.93345c0,4.38153 -3.55193,7.93345 -7.93345,7.93345c-4.38152,0 -7.93344,-3.55192 -7.93344,-7.93345z" fill="url(#color-1)" stroke="none" stroke-width="0" stroke-linecap="butt"/><path d="M29.56833,257.23908c0,0 -4.19314,0.93972 -6.29804,0.93972c-2.01556,0 -6.07496,-0.93972 -6.07496,-0.93972" fill="none" stroke="#ffffff" stroke-width="1" stroke-linecap="round"/><path d="M29.54507,262.17438c0,0 -4.01358,1.25296 -6.10227,1.25296c-2.01767,0 -6.2242,-1.25296 -6.2242,-1.25296" fill="none" stroke="#ffffff" stroke-width="1" stroke-linecap="round"/><path d="M21.15794,266.41195c0,0 -1.01803,-3.94746 -1.01803,-5.7215c0,-1.87909 0.86141,-6.19576 0.86141,-6.19576" fill="none" stroke="#ffffff" stroke-width="1" stroke-linecap="round"/><path d="M25.20828,254.44082c0,0 1.29212,4.02923 1.29212,6.01471c0,1.58053 -1.44874,5.98086 -1.44874,5.98086" fill="none" stroke="#ffffff" stroke-width="1" stroke-linecap="round"/><path d="M12.01805,264.57196c0,-3.40386 2.75938,-6.16323 6.16324,-6.16323c3.40386,0 6.16324,2.75937 6.16324,6.16323c0,3.40386 -2.75938,6.16324 -6.16323,6.16324c-3.40386,0 -6.16324,-2.75938 -6.16324,-6.16324z" fill="#b3b3b3" stroke="#000000" stroke-width="0" stroke-linecap="butt"/><path d="M20.80718,267.39634l-2.6259,-2.6259v-3.02284" fill="none" stroke="#ffffff" stroke-width="0.75" stroke-linecap="round"/><path d="M18.18128,259.65166v-0.91602" fill="none" stroke="#ffffff" stroke-width="0.75" stroke-linecap="round"/><path d="M18.18128,270.36899v-0.91601" fill="none" stroke="#ffffff" stroke-width="0.75" stroke-linecap="round"/><path d="M12.34075,264.57196h0.85495" fill="none" stroke="#ffffff" stroke-width="0.75" stroke-linecap="round"/><path d="M23.11917,264.57196h0.85494" fill="none" stroke="#ffffff" stroke-width="0.75" stroke-linecap="round"/><text transform="translate(38.40856,264.37722) scale(0.30163,0.30163)" font-size="40" xml:space="preserve" fill="#000000" fill-rule="nonzero" stroke="none" stroke-width="1" stroke-linecap="butt" stroke-linejoin="miter" stroke-miterlimit="10" stroke-dasharray="" stroke-dashoffset="0" font-family="Sans Serif" font-weight="normal" text-anchor="start" style="mix-blend-mode: normal"><tspan x="0" dy="0">时间和语言</tspan></text></g><g><path d="M4.42817,310.94824c0,-7.50699 0,-20.02384 0,-24.13795c0,-2.58829 2.7642,-5.55237 6.0146,-5.55237c11.86681,0 83.65947,0 104.52456,0c3.5987,0 5.68243,3.11395 5.68243,5.79433c0,4.06258 0,16.00325 0,23.46963c0,3.69946 -2.59431,6.30046 -5.68243,6.30046c-11.60699,0 -83.70739,0 -104.76853,0c-3.65308,0 -5.77063,-2.40083 -5.77063,-5.8741z" fill-opacity="0.12549" fill="#a6a6a6" stroke="#000000" stroke-width="0" stroke-linecap="butt"/><g stroke="#66ccff" stroke-width="3"><path d="M25.78314,296.51311c0,-1.52766 1.23841,-2.76607 2.76608,-2.76607c1.52766,0 2.76606,1.23841 2.76606,2.76607c0,1.52766 -1.2384,2.76606 -2.76606,2.76606c-1.52766,0 -2.76608,-1.2384 -2.76608,-2.76606z" fill="#66ccff" stroke-linecap="butt"/><path d="M15.44838,293.74704l2.80108,2.80108l-2.73105,2.73105" fill="none" stroke-linecap="round"/><path d="M27.49041,303.25988c0,0 -2.32692,2.68215 -5.29426,2.67001c-2.86636,-0.01173 -4.74184,-2.67001 -4.74184,-2.67001" fill="none" stroke-linecap="round"/></g><text transform="translate(38.40857,302.65969) scale(0.30163,0.30163)" font-size="40" xml:space="preserve" fill="#000000" fill-rule="nonzero" stroke="none" stroke-width="1" stroke-linecap="butt" stroke-linejoin="miter" stroke-miterlimit="10" stroke-dasharray="" stroke-dashoffset="0" font-family="Sans Serif" font-weight="normal" text-anchor="start" style="mix-blend-mode: normal"><tspan x="0" dy="0">用户体验计划</tspan></text></g><g stroke-linecap="butt"><path d="M4.42817,349.14742c0,-7.50699 0,-20.02384 0,-24.13795c0,-2.5883 2.7642,-5.55237 6.0146,-5.55237c11.86681,0 83.65947,0 104.52456,0c3.5987,0 5.68243,3.11395 5.68243,5.79432c0,4.06259 0,16.00326 0,23.46964c0,3.69946 -2.59431,6.30046 -5.68243,6.30046c-11.60699,0 -83.70739,0 -104.76853,0c-3.65308,0 -5.77063,-2.40083 -5.77063,-5.8741z" fill-opacity="0.12549" fill="#a6a6a6" stroke="#000000" stroke-width="0"/><g stroke="none" stroke-width="0"><path d="M18.6428,342.56069v-12.67248h12.67248v12.67248z" fill="#52a3cc"/><path d="M17.04559,344.33328v-12.67248h12.67247v12.67248z" fill="#5cb8e6"/><path d="M15.44838,345.93049v-12.67248h12.67248v12.67248z" fill="#66ccff"/></g><text transform="translate(38.40857,340.85887) scale(0.30163,0.30163)" font-size="40" xml:space="preserve" fill="#000000" fill-rule="nonzero" stroke="none" stroke-width="1" stroke-linecap="butt" stroke-linejoin="miter" stroke-miterlimit="10" stroke-dasharray="" stroke-dashoffset="0" font-family="Sans Serif" font-weight="normal" text-anchor="start" style="mix-blend-mode: normal"><tspan x="0" dy="0">更多</tspan></text></g></g></g></svg>