<svg version="1.1" xmlns="http://www.w3.org/2000/svg" xmlns:xlink="http://www.w3.org/1999/xlink" width="85.33336" height="93.33334" viewBox="0,0,85.33336,93.33334"><g transform="translate(-277.33332,-133.33333)"><g data-paper-data="{&quot;isPaintingLayer&quot;:true}" fill="#000000" fill-rule="nonzero" stroke="none" stroke-width="1" stroke-linecap="butt" stroke-linejoin="miter" stroke-miterlimit="10" stroke-dasharray="" stroke-dashoffset="0" style="mix-blend-mode: normal"><path d="M311.99999,192v5.33333c0,2.22222 0.77867,4.112 2.336,5.66933c1.55733,1.55733 3.44533,2.33422 5.664,2.33067c2.21867,-0.00356 4.10844,-0.78044 5.66933,-2.33067c1.56089,-1.55022 2.33778,-3.44 2.33067,-5.66933v-5.33333h5.33333c2.22222,0 4.112,-0.77689 5.66933,-2.33067c1.55733,-1.55378 2.33422,-3.44356 2.33067,-5.66933c-0.00356,-2.22578 -0.78044,-4.11378 -2.33067,-5.664c-1.55022,-1.55022 -3.44,-2.32889 -5.66933,-2.336h-5.33333v-5.33333c0,-2.22222 -0.77689,-4.11022 -2.33067,-5.664c-1.55378,-1.55378 -3.44356,-2.33244 -5.66933,-2.336c-2.22578,-0.00356 -4.11378,0.77511 -5.664,2.336c-1.55022,1.56089 -2.32889,3.44889 -2.336,5.664v5.33333h-5.33333c-2.22222,0 -4.11022,0.77867 -5.664,2.336c-1.55378,1.55733 -2.33244,3.44533 -2.336,5.664c-0.00356,2.21867 0.77511,4.10844 2.336,5.66933c1.56089,1.56089 3.44889,2.33778 5.664,2.33067zM287.99999,226.66666c-2.93333,0 -5.44356,-1.04356 -7.53067,-3.13067c-2.08711,-2.08711 -3.13244,-4.59911 -3.136,-7.536v-48c0,-1.68889 0.37867,-3.28889 1.136,-4.8c0.75733,-1.51111 1.80089,-2.75556 3.13067,-3.73333l32,-24c1.86667,-1.42222 4,-2.13333 6.4,-2.13333c2.4,0 4.53333,0.71111 6.4,2.13333l32,24c1.33333,0.97778 2.37867,2.22222 3.136,3.73333c0.75733,1.51111 1.13422,3.11111 1.13067,4.8v48c0,2.93333 -1.04533,5.44533 -3.136,7.536c-2.09067,2.09067 -4.60089,3.13422 -7.53067,3.13067z"/></g></g></svg>