<svg version="1.1" xmlns="http://www.w3.org/2000/svg" xmlns:xlink="http://www.w3.org/1999/xlink" width="85.33336" height="93.33335" viewBox="0,0,85.33336,93.33335"><g transform="translate(-277.33332,-133.33332)"><g data-paper-data="{&quot;isPaintingLayer&quot;:true}" fill="#000000" fill-rule="nonzero" stroke="none" stroke-width="1" stroke-linecap="butt" stroke-linejoin="miter" stroke-miterlimit="10" stroke-dasharray="" stroke-dashoffset="0" style="mix-blend-mode: normal"><path d="M277.33332,215.99999v-48c0,-1.68889 0.37867,-3.28889 1.136,-4.8c0.75733,-1.51111 1.80089,-2.75556 3.13067,-3.73333l32,-24c1.86667,-1.42222 4,-2.13333 6.4,-2.13333c2.4,0 4.53333,0.71111 6.4,2.13333l32,24c1.33333,0.97778 2.37867,2.22222 3.136,3.73333c0.75733,1.51111 1.13422,3.11111 1.13067,4.8v48c0,2.93333 -1.04533,5.44533 -3.136,7.536c-2.09067,2.09067 -4.60089,3.13422 -7.53067,3.13067h-16c-1.51111,0 -2.77689,-0.512 -3.79733,-1.536c-1.02044,-1.024 -1.53244,-2.28978 -1.536,-3.79733v-26.66667c0,-1.51111 -0.512,-2.77689 -1.536,-3.79733c-1.024,-1.02044 -2.28978,-1.53244 -3.79733,-1.536h-10.66667c-1.51111,0 -2.77689,0.512 -3.79733,1.536c-1.02044,1.024 -1.53244,2.28978 -1.536,3.79733v26.66667c0,1.51111 -0.512,2.77867 -1.536,3.80267c-1.024,1.024 -2.28978,1.53422 -3.79733,1.53067h-16c-2.93333,0 -5.44356,-1.04356 -7.53067,-3.13067c-2.08711,-2.08711 -3.13244,-4.59911 -3.136,-7.536"/></g></g></svg>