<svg version="1.1" xmlns="http://www.w3.org/2000/svg" xmlns:xlink="http://www.w3.org/1999/xlink" width="390.37493" height="427.7636" viewBox="0,0,390.37493,427.7636"><defs><linearGradient x1="231.46617" y1="180" x2="258.34903" y2="180" gradientUnits="userSpaceOnUse" id="color-1"><stop offset="0" stop-color="#000000"/><stop offset="1" stop-color="#000000" stop-opacity="0"/></linearGradient></defs><g transform="translate(129.60976,33.8818)"><g data-paper-data="{&quot;isPaintingLayer&quot;:true}" fill-rule="nonzero" stroke-linejoin="miter" stroke-miterlimit="10" stroke-dasharray="" stroke-dashoffset="0" style="mix-blend-mode: normal"><path d="M-129.60976,393.8818v-427.7636h361.07592v427.7636z" fill="#000000" stroke="#ff0000" stroke-width="0" stroke-linecap="butt"/><path d="M231.46617,393.8818v-427.7636h26.88287v427.7636z" fill="url(#color-1)" stroke="#ff0000" stroke-width="0" stroke-linecap="butt"/><path d="M218.31947,197.39149c0,-10.61649 8.60636,-19.22284 19.22285,-19.22284c10.61649,0 19.22285,8.60635 19.22285,19.22284c0,10.61649 -8.60636,19.22285 -19.22285,19.22285c-10.61649,0 -19.22285,-8.60636 -19.22285,-19.22285z" fill="none" stroke="#ffffff" stroke-width="8" stroke-linecap="butt"/><g fill="none" stroke="#ffffff" stroke-width="8"><path d="M158.64391,169.73089c0,-15.17618 12.30272,-27.4789 27.4789,-27.4789c15.17618,0 27.47891,12.30273 27.47891,27.4789c0,15.17618 -12.30273,27.47891 -27.47891,27.47891c-15.17618,0 -27.4789,-12.30273 -27.4789,-27.47891z" stroke-linecap="butt"/><path d="M158.64391,169.99135v46.62298" stroke-linecap="round"/><path d="M203.39121,216.61433l-9.32426,-19.40453" stroke-linecap="round"/></g><path d="M158.64391,169.73089c0,-15.17618 12.30272,-27.4789 27.4789,-27.4789c15.17618,0 27.47891,12.30273 27.47891,27.4789c0,15.17618 -12.30273,27.47891 -27.47891,27.47891c-15.17618,0 -27.4789,-12.30273 -27.4789,-27.47891z" fill="none" stroke="#ffffff" stroke-width="8" stroke-linecap="butt"/><path d="M158.64391,169.99135v46.62298" fill="none" stroke="#ffffff" stroke-width="8" stroke-linecap="round"/><path d="M203.39121,216.61433l-9.32426,-19.40453" fill="none" stroke="#ffffff" stroke-width="8" stroke-linecap="round"/><path d="M256.76516,178.16865v38.44568" fill="none" stroke="#ffffff" stroke-width="8" stroke-linecap="round"/></g></g></svg>