<svg version="1.1" xmlns="http://www.w3.org/2000/svg" xmlns:xlink="http://www.w3.org/1999/xlink" width="116.22159" height="35.56442" viewBox="0,0,116.22159,35.56442"><defs><radialGradient cx="21.96946" cy="219.54505" r="4.48049" gradientUnits="userSpaceOnUse" id="color-1"><stop offset="0" stop-color="#000000" stop-opacity="0.50196"/><stop offset="1" stop-color="#000000" stop-opacity="0"/></radialGradient><radialGradient cx="21.73812" cy="229.70695" r="7.3741" gradientUnits="userSpaceOnUse" id="color-2"><stop offset="0" stop-color="#000000" stop-opacity="0.50196"/><stop offset="1" stop-color="#000000" stop-opacity="0"/></radialGradient></defs><g transform="translate(-4.42817,-204.92615)"><g data-paper-data="{&quot;isPaintingLayer&quot;:true}" fill-rule="nonzero" stroke-linecap="butt" stroke-linejoin="miter" stroke-miterlimit="10" stroke-dasharray="" stroke-dashoffset="0" style="mix-blend-mode: normal"><path d="M4.42817,234.61647c0,-7.50699 0,-20.02384 0,-24.13795c0,-2.58829 2.76421,-5.55237 6.0146,-5.55237c11.86681,0 83.65947,0 104.52456,0c3.5987,0 5.68243,3.11396 5.68243,5.79433c0,4.06259 0,16.00325 0,23.46963c0,3.69946 -2.59431,6.30046 -5.68243,6.30046c-11.60699,0 -83.70739,0 -104.76853,0c-3.65308,0 -5.77063,-2.40084 -5.77063,-5.8741z" fill-opacity="0.12549" fill="#a6a6a6" stroke="#000000" stroke-width="0"/><text transform="translate(38.40857,226.32792) scale(0.30163,0.30163)" font-size="40" xml:space="preserve" fill="#000000" fill-rule="nonzero" stroke="none" stroke-width="1" stroke-linecap="butt" stroke-linejoin="miter" stroke-miterlimit="10" stroke-dasharray="" stroke-dashoffset="0" font-family="Sans Serif" font-weight="normal" text-anchor="start" style="mix-blend-mode: normal"><tspan x="0" dy="0">账户</tspan></text><path d="M17.48897,219.54505c0,-2.4745 2.00598,-4.48048 4.48049,-4.48048c2.47451,0 4.48048,2.00598 4.48048,4.48048c0,2.4745 -2.00598,4.48049 -4.48048,4.48049c-2.47451,0 -4.48049,-2.00598 -4.48049,-4.48049z" fill="url(#color-1)" stroke="none" stroke-width="0"/><path d="M14.39619,229.47475c1.55161,-2.54482 3.957,-4.00606 7.15557,-4.00606c3.48765,0 6.10714,1.78222 7.545,4.71613c0.28898,0.58965 -3.52084,3.91603 -7.59118,3.75472c-4.02303,-0.15945 -7.51517,-3.79926 -7.10939,-4.46479z" fill="url(#color-2)" stroke="none" stroke-width="0"/><path d="M16.8638,219.17516c0,-2.4745 2.00598,-4.48049 4.48049,-4.48049c2.47451,0 4.48048,2.00598 4.48048,4.48049c0,2.4745 -2.00598,4.48048 -4.48048,4.48048c-2.4745,0 -4.48049,-2.00598 -4.48049,-4.48048z" fill="#e6e6e6" stroke="#999999" stroke-width="0.5"/><path d="M13.77102,229.04941c1.55162,-2.54482 3.957,-4.00606 7.15557,-4.00606c3.48765,0 6.10714,1.78222 7.545,4.71613c0.28898,0.58965 -3.52083,3.91603 -7.59117,3.75472c-4.02303,-0.15945 -7.51518,-3.79926 -7.1094,-4.46479z" fill="#e6e6e6" stroke="#999999" stroke-width="0.5"/></g></g></svg>