<svg version="1.1" xmlns="http://www.w3.org/2000/svg" xmlns:xlink="http://www.w3.org/1999/xlink" width="46.70833" height="46.70833" viewBox="0,0,46.70833,46.70833"><g transform="translate(-296.64583,-156.64583)"><g data-paper-data="{&quot;isPaintingLayer&quot;:true}" fill-rule="nonzero" stroke="#000000" stroke-linecap="butt" stroke-linejoin="miter" stroke-miterlimit="10" stroke-dasharray="" stroke-dashoffset="0" style="mix-blend-mode: normal"><g><path d="M296.64583,201.26522c0,-8.17813 0,-37.79883 0,-42.43225c0,-1.19355 0.94554,-2.18714 2.09193,-2.18714c4.53319,0 34.01439,0 42.3966,0c1.40724,0 2.21981,1.02313 2.21981,2.2454c0,4.64662 0,33.80579 0,42.20289c0,1.43188 -0.95249,2.26004 -2.10575,2.26004c-4.52245,0 -33.72011,0 -42.25992,0c-1.4827,0 -2.34266,-0.76237 -2.34266,-2.08895z" fill="#a9a9a9" stroke-width="0"/><path d="M300.32601,192.73468v-25.46935h39.34799v25.46935z" fill="#ffffff" stroke-width="2"/><path d="M300.32601,172.40113v-5.13579h39.34799v5.13579z" fill="#ffffff" stroke-width="2"/></g></g></g></svg>