<svg version="1.1" xmlns="http://www.w3.org/2000/svg" xmlns:xlink="http://www.w3.org/1999/xlink" width="47.83334" height="47.83333" viewBox="0,0,47.83334,47.83333"><g transform="translate(-296.08333,-156.08335)"><g data-paper-data="{&quot;isPaintingLayer&quot;:true}" fill="#ffffff" fill-rule="nonzero" stroke-width="0" stroke-linecap="butt" stroke-linejoin="miter" stroke-miterlimit="10" stroke-dasharray="" stroke-dashoffset="0" style="mix-blend-mode: normal"><path d="M302.08333,196.31409c0,-6.27402 0,-28.99822 0,-32.55285c0,-0.91566 0.7254,-1.67791 1.60487,-1.67791c3.47775,0 26.09491,0 32.5255,0c1.0796,0 1.70297,0.78492 1.70297,1.72261c0,3.56476 0,25.93486 0,32.37689c0,1.0985 -0.73073,1.73384 -1.61547,1.73384c-3.46949,0 -25.86914,0 -32.42065,0c-1.13748,0 -1.79723,-0.58487 -1.79723,-1.60259z" stroke="#000000"/><path d="M296.08333,197.66669c0,-10.45122 0,-30.86522 0,-36.2963c0,-2.60603 2.66645,-5.28704 5.26191,-5.28704c5.55115,0 26.82448,0 37.03704,0c3.36907,0 5.53439,2.73473 5.53439,5.37963c0,5.50356 0,26.14665 0,36.48148c0,3.61765 -2.87903,5.97222 -5.62698,5.97222c-5.59264,0 -26.18052,0 -36.38889,0c-3.5289,0 -5.81746,-2.47514 -5.81746,-6.25z" stroke="none"/><path d="M296.08333,203.91668v-47.83333h47.83334v47.83333z" stroke="#000000"/></g></g></svg>