<svg version="1.1" xmlns="http://www.w3.org/2000/svg" xmlns:xlink="http://www.w3.org/1999/xlink" width="106.66666" height="106.66666" viewBox="0,0,106.66666,106.66666"><g transform="translate(-266.66667,-126.66666)"><g data-paper-data="{&quot;isPaintingLayer&quot;:true}" fill="#000000" fill-rule="nonzero" stroke="none" stroke-width="1" stroke-linecap="butt" stroke-linejoin="miter" stroke-miterlimit="10" stroke-dasharray="" stroke-dashoffset="0" style="mix-blend-mode: normal"><path d="M320,218.4c12.84326,-0.00474 24.84117,-6.40362 32,-17.06667c-0.16,-10.66667 -21.33333,-16.53333 -32,-16.53333c-10.66667,0 -31.84,5.86667 -32,16.53333c6.88,10.24 18.66667,17.06667 32,17.06667M320,142.66667c-8.83656,0 -16,7.16344 -16,16c0,8.83656 7.16344,16 16,16c8.83656,0 16,-7.16344 16,-16c0,-8.83656 -7.16344,-16 -16,-16M320,126.66667c29.33333,0 53.33333,23.84 53.33333,53.33333c0,29.45519 -23.87815,53.33333 -53.33333,53.33333c-29.45519,0 -53.33333,-23.87815 -53.33333,-53.33333c0,-29.45519 23.87815,-53.33333 53.33333,-53.33333"/></g></g></svg>