<svg version="1.1" xmlns="http://www.w3.org/2000/svg" xmlns:xlink="http://www.w3.org/1999/xlink" width="119.29397" height="99.67024" viewBox="0,0,119.29397,99.67024"><g transform="translate(-387.92249,-140.75197)"><g data-paper-data="{&quot;isPaintingLayer&quot;:true}" fill-rule="nonzero" stroke-linejoin="miter" stroke-miterlimit="10" stroke-dasharray="" stroke-dashoffset="0" style="mix-blend-mode: normal"><path d="M467.99572,179.97273c0,0 0,-26.39766 0,-32.57432c0,-2.4551 2.73406,-5.14643 5.21739,-5.14643c6.19828,0 32.50336,0 32.50336,0c0,0 0,25.67198 0,32.00918c0,2.67693 -2.96719,5.71158 -5.6014,5.71158c-6.30791,0 -32.11935,0 -32.11935,0z" fill="none" stroke="#ffffff" stroke-width="3" stroke-linecap="butt"/><path d="M473.44577,149.36233v23.50004" fill="none" stroke="#ffffff" stroke-width="4" stroke-linecap="round"/><path d="M473.44577,160.78822v-11.42589h8.73041c0,0 4.15994,0.51334 4.26821,5.42932c0.11734,5.32777 -4.26821,5.99657 -4.26821,5.99657z" fill="none" stroke="#ffffff" stroke-width="4" stroke-linecap="butt"/><path d="M482.33752,161.11236l2.78537,11.58795" fill="none" stroke="#ffffff" stroke-width="4" stroke-linecap="round"/><path d="M490.91044,172.86237v-23.50004" fill="none" stroke="#ffffff" stroke-width="4" stroke-linecap="round"/><path d="M490.91044,149.36233h9.35598" fill="none" stroke="#ffffff" stroke-width="4" stroke-linecap="round"/><path d="M490.91044,172.86238h9.35598" fill="none" stroke="#ffffff" stroke-width="4" stroke-linecap="round"/><path d="M500.26641,161.11236h-9.35598" fill="none" stroke="#ffffff" stroke-width="4" stroke-linecap="round"/><text transform="translate(388.07893,236.51134) scale(0.31287,0.31287)" font-size="40" xml:space="preserve" fill="#ffffff" fill-rule="nonzero" stroke="none" stroke-width="1" stroke-linecap="butt" stroke-linejoin="miter" stroke-miterlimit="10" stroke-dasharray="" stroke-dashoffset="0" font-family="Sans Serif" font-weight="normal" text-anchor="start" style="mix-blend-mode: normal"><tspan x="0" dy="0">Professional</tspan></text></g></g></svg>