<svg version="1.1" xmlns="http://www.w3.org/2000/svg" xmlns:xlink="http://www.w3.org/1999/xlink" width="39.375" height="39.375" viewBox="0,0,39.375,39.375"><defs><linearGradient x1="300.82592" y1="160.86232" x2="339.15785" y2="199.19425" gradientUnits="userSpaceOnUse" id="color-1"><stop offset="0" stop-color="#adf8ff"/><stop offset="1" stop-color="#66ccff"/></linearGradient></defs><g transform="translate(-300.3125,-160.3125)"><g data-paper-data="{&quot;isPaintingLayer&quot;:true}" fill-rule="nonzero" stroke="#000000" stroke-linejoin="miter" stroke-miterlimit="10" stroke-dasharray="" stroke-dashoffset="0" style="mix-blend-mode: normal"><path d="M300.31251,197.92653c0,-6.89414 0,-31.86431 0,-35.77027c0,-1.00616 0.79709,-1.84375 1.76349,-1.84375c3.82147,0 28.67404,0 35.74022,0c1.1863,0 1.87129,0.8625 1.87129,1.89287c0,3.91709 0,28.49819 0,35.57692c0,1.20707 -0.80295,1.90521 -1.77514,1.90521c-3.81241,0 -28.42596,0 -35.625,0c-1.24991,0 -1.97486,-0.64268 -1.97486,-1.76098z" fill="url(#color-1)" stroke-width="0" stroke-linecap="butt"/><path d="M306.63074,190.56921v-15.74074h26.73853v15.74074z" fill="#ffffff" stroke-width="2" stroke-linecap="butt"/><path d="M306.63074,174.82847v-5.39768h26.73853v5.39768z" fill="#ffffff" stroke-width="2" stroke-linecap="butt"/><path d="M310.48843,178.6537l4.0625,4.0625l-4.02778,4.02778" fill="none" stroke-width="2" stroke-linecap="round"/><path d="M317.46528,186.61111h5.06944" fill="none" stroke-width="2" stroke-linecap="round"/></g></g></svg>