<svg version="1.1" xmlns="http://www.w3.org/2000/svg" xmlns:xlink="http://www.w3.org/1999/xlink" width="39.375" height="39.375" viewBox="0,0,39.375,39.375"><defs><linearGradient x1="300.82593" y1="160.86233" x2="339.15786" y2="199.19426" gradientUnits="userSpaceOnUse" id="color-1"><stop offset="0" stop-color="#adf8ff"/><stop offset="1" stop-color="#66ccff"/></linearGradient></defs><g transform="translate(-300.31252,-160.31251)"><g data-paper-data="{&quot;isPaintingLayer&quot;:true}" fill-rule="nonzero" stroke="#000000" stroke-linecap="butt" stroke-linejoin="miter" stroke-miterlimit="10" stroke-dasharray="" stroke-dashoffset="0" style="mix-blend-mode: normal"><path d="M300.31252,197.92654c0,-6.89414 0,-31.86431 0,-35.77027c0,-1.00616 0.79709,-1.84375 1.76349,-1.84375c3.82147,0 28.67404,0 35.74022,0c1.1863,0 1.87129,0.8625 1.87129,1.89287c0,3.91709 0,28.49819 0,35.57692c0,1.20707 -0.80295,1.90521 -1.77514,1.90521c-3.81241,0 -28.42596,0 -35.625,0c-1.24991,0 -1.97486,-0.64268 -1.97486,-1.76098z" fill="url(#color-1)" stroke-width="0"/><path d="M306.29888,189.56315v-19.12626h27.40227v19.12626z" fill="#cceeff" stroke-width="2"/><path d="M309.93358,186.09267v-12.18531h20.13287v12.18531z" fill="#ffffff" stroke-width="2"/><path d="M313.31055,183.51864v-3.51864h13.3789v3.51864z" fill="#ffffff" stroke-width="2"/></g></g></svg>