<svg version="1.1" xmlns="http://www.w3.org/2000/svg" xmlns:xlink="http://www.w3.org/1999/xlink" width="43.33331" height="43.33332" viewBox="0,0,43.33331,43.33332"><g transform="translate(-298.52085,-158.52084)"><g data-paper-data="{&quot;isPaintingLayer&quot;:true}" stroke="#000000" stroke-width="0" stroke-linecap="butt" stroke-linejoin="miter" stroke-miterlimit="8" stroke-dasharray="" stroke-dashoffset="0" style="mix-blend-mode: normal"><path d="M298.52085,165.87927c0,-4.06396 3.29444,-7.35842 7.3585,-7.35842h28.61631c4.06406,0 7.3585,3.29445 7.3585,7.35842v28.61639c0,4.06406 -3.29444,7.35851 -7.3585,7.35851h-28.61631c-4.06406,0 -7.3585,-3.29445 -7.3585,-7.35851z" fill="#ffffff" fill-rule="evenodd"/><path d="M304.11355,174.59042c0,-3.36703 2.72926,-6.0963 6.09629,-6.0963h21.04823c3.36703,0 6.09629,2.72927 6.09629,6.0963v12.37297c0,3.36703 -2.72927,6.0963 -6.09629,6.0963h-21.04823c-3.36703,0 -6.09629,-2.72927 -6.09629,-6.0963z" fill="#000000" fill-rule="evenodd"/><path d="M309.86794,193.05969v-25.15496h21.45576v25.15496z" fill="#000000" fill-rule="nonzero"/><path d="M310.14413,168.49412l10.61129,6.87664l10.61129,-6.87664l1.15355,0.1163c1.98414,0.4061 3.61741,1.77637 4.38831,3.59989l0.274,1.35712l-16.42715,10.64523l-16.42715,-10.64523l0.274,-1.35712c0.77089,-1.82352 2.40416,-3.19379 4.3883,-3.59989z" fill="#000000" fill-rule="evenodd"/><path d="M303.52415,174.00102c0,-3.36703 2.72927,-6.09629 6.0963,-6.09629h21.04822c3.36703,0 6.0963,2.72927 6.0963,6.09629v12.37297c0,3.36703 -2.72927,6.09629 -6.0963,6.09629h-21.04822c-3.36703,0 -6.0963,-2.72927 -6.0963,-6.09629z" fill="#00ffff" fill-rule="evenodd"/><path d="M309.27855,192.47029v-26.04068h21.45576v26.04068z" fill="#ffffff" fill-rule="nonzero"/><path d="M309.55474,167.90473l10.61129,6.87664l10.6113,-6.87664l1.15355,0.1163c1.98414,0.4061 3.61741,1.77636 4.38831,3.59988l0.274,1.35712l-16.42715,10.64523l-16.42714,-10.64523l0.274,-1.35712c0.77089,-1.82352 2.40415,-3.19377 4.3883,-3.59988z" fill="#66ccff" fill-rule="evenodd"/></g></g></svg>