<svg version="1.1" xmlns="http://www.w3.org/2000/svg" xmlns:xlink="http://www.w3.org/1999/xlink" width="16.84211" height="14.28571" viewBox="0,0,16.84211,14.28571"><g data-paper-data="{&quot;isPaintingLayer&quot;:true}" fill-rule="nonzero" stroke-linejoin="miter" stroke-miterlimit="10" stroke-dasharray="" stroke-dashoffset="0" style="mix-blend-mode: normal"><path d="M0,14.28571v-14.28571h16.84211v14.28571z" fill-opacity="0.01176" fill="#000000" stroke="#000000" stroke-width="0" stroke-linecap="butt"/><path d="M3.58845,5.29149c0,-1.64936 1.33707,-2.98643 2.98643,-2.98643c1.64936,0 2.98643,1.33707 2.98643,2.98643c0,1.64936 -1.33707,2.98643 -2.98643,2.98643c-1.64936,0 -2.98643,-1.33707 -2.98643,-2.98643z" fill="none" stroke="#ffffff" stroke-width="1" stroke-linecap="butt"/><path d="M3.58845,5.29149v6.67878" fill="none" stroke="#ffffff" stroke-width="1" stroke-linecap="round"/><path d="M7.22498,8.27792l1.57249,3.69234" fill="none" stroke="#ffffff" stroke-width="1" stroke-linecap="round"/><path d="M9.96675,10.12409c0,-1.01961 0.82655,-1.84618 1.84617,-1.84618c1.01962,0 1.84618,0.82656 1.84618,1.84618c0,1.01962 -0.82656,1.84617 -1.84618,1.84617c-1.01961,0 -1.84617,-0.82655 -1.84617,-1.84617z" fill="none" stroke="#ffffff" stroke-width="1" stroke-linecap="butt"/><path d="M13.65909,8.27792v3.70274" fill="none" stroke="#ffffff" stroke-width="1" stroke-linecap="round"/></g></svg>