<svg version="1.1" xmlns="http://www.w3.org/2000/svg" xmlns:xlink="http://www.w3.org/1999/xlink" width="39.60386" height="39.60459" viewBox="0,0,39.60386,39.60459"><defs><linearGradient x1="300.94395" y1="160.72986" x2="339.02873" y2="199.30737" gradientUnits="userSpaceOnUse" id="color-1"><stop offset="0" stop-color="#8cf5ff"/><stop offset="1" stop-color="#66ccff"/></linearGradient></defs><g transform="translate(-300.1923,-160.18807)"><g data-paper-data="{&quot;isPaintingLayer&quot;:true}" fill-rule="nonzero" stroke-linejoin="miter" stroke-miterlimit="10" stroke-dasharray="" stroke-dashoffset="0" style="mix-blend-mode: normal"><path d="M300.19234,197.79002c0.04431,-6.894 0.20479,-31.86365 0.2299,-35.76953c0.00647,-1.00614 0.80892,-1.83859 1.7753,-1.83238c3.82139,0.02456 28.67345,0.18429 35.73948,0.2297c1.18628,0.00762 1.86571,0.87451 1.85909,1.90486c-0.02518,3.91701 -0.18316,28.4976 -0.22865,35.57619c-0.00776,1.20705 -0.81518,1.90001 -1.78735,1.89376c-3.81233,-0.0245 -28.42537,-0.18269 -35.62426,-0.22896c-1.24988,-0.00803 -1.97069,-0.65536 -1.9635,-1.77364z" fill="url(#color-1)" stroke="#000000" stroke-width="0" stroke-linecap="butt"/><path d="M323.28028,185.54958c0,-3.28077 2.65958,-5.94035 5.94035,-5.94035c3.28077,0 5.94035,2.65958 5.94035,5.94035c0,3.28077 -2.65958,5.94035 -5.94035,5.94035c-3.28077,0 -5.94035,-2.65958 -5.94035,-5.94035z" fill="none" stroke="#ffffff" stroke-width="3" stroke-linecap="butt"/><path d="M304.83901,177.00175c0,-4.68983 3.80185,-8.49168 8.49168,-8.49168c4.68983,0 8.49168,3.80186 8.49168,8.49168c0,4.68983 -3.80186,8.49168 -8.49168,8.49168c-4.68983,0 -8.49168,-3.80186 -8.49168,-8.49168z" fill="none" stroke="#ffffff" stroke-width="3" stroke-linecap="butt"/><path d="M304.83901,177.08224v14.40769" fill="none" stroke="#ffffff" stroke-width="3" stroke-linecap="round"/><path d="M318.66707,191.48993l-2.88143,-5.99649" fill="none" stroke="#ffffff" stroke-width="3" stroke-linecap="round"/><path d="M335.16098,191.48993v-11.8807" fill="none" stroke="#ffffff" stroke-width="3" stroke-linecap="round"/></g></g></svg>