<svg version="1.1" xmlns="http://www.w3.org/2000/svg" xmlns:xlink="http://www.w3.org/1999/xlink" width="106.66486" height="121.67467" viewBox="0,0,106.66486,121.67467"><g transform="translate(-266.66757,-119.16267)"><g data-paper-data="{&quot;isPaintingLayer&quot;:true}" fill-rule="evenodd" stroke="none" stroke-width="1" stroke-linecap="butt" stroke-linejoin="miter" stroke-miterlimit="10" stroke-dasharray="" stroke-dashoffset="0" style="mix-blend-mode: normal"><path d="M317.83999,237.872c0.04267,0.00711 0.07111,0.03911 0.08533,0.096l0.09067,2.27733l-0.02133,0.09067l-0.064,0.08533l-0.55467,0.39467l-0.064,0.02133l-0.08,-0.02133l-0.55467,-0.39467l-0.05333,-0.06933l-0.02667,-0.10667l0.09067,-2.28267l0.02133,-0.05333c0.02844,-0.03556 0.07111,-0.04622 0.128,-0.032l0.37867,0.192l0.07467,0.02133l0.10667,-0.02133l0.37867,-0.18667l0.064,-0.01067M319.24799,237.26933c0.05333,0.01067 0.08889,0.04978 0.10667,0.11733l0.18133,3.27467l-0.02133,0.07467c-0.03556,0.04622 -0.08711,0.06044 -0.15467,0.04267l-1.072,-0.49067l-0.04267,-0.04267l-0.02667,-0.064l-0.096,-2.29333l0.016,-0.05867l0.05333,-0.05333l0.98133,-0.496l0.07467,-0.01067M316.41599,237.77067l0.05333,0.05333l0.016,0.064l-0.096,2.29333l-0.016,0.05867l-0.05333,0.04267l-1.072,0.496l-0.08,0.01067c-0.05689,-0.02133 -0.08711,-0.064 -0.09067,-0.128l0.18133,-3.27467l0.032,-0.07467c0.0317,-0.04749 0.09517,-0.06159 0.144,-0.032z" fill="none"/><path d="M298.67199,129.82933c2.94552,0 5.33333,2.38781 5.33333,5.33333v5.33333h16c2.94552,0 5.33333,2.38781 5.33333,5.33333c0,2.94552 -2.38781,5.33333 -5.33333,5.33333h-0.29333c-1.18933,10.83733 -5.952,21.28 -13.57333,30.336c3.49555,3.02654 7.28508,5.69583 11.312,7.968l11.024,-24.49067c0.86103,-1.91437 2.76491,-3.14565 4.864,-3.14565c2.09909,0 4.00297,1.23128 4.864,3.14565l24,53.33333c1.16375,2.67757 -0.04165,5.79319 -2.70448,6.99029c-2.66283,1.1971 -5.79325,0.03071 -7.02352,-2.61696l-5.78667,-12.85333h-26.704l-5.78133,12.85333c-1.23027,2.64767 -4.3607,3.81406 -7.02352,2.61696c-2.66283,-1.1971 -3.86823,-4.31272 -2.70448,-6.99029l8.58667,-19.072c-5.15242,-2.83653 -9.98085,-6.22537 -14.4,-10.10667c-6.864,6.05867 -15.18933,11.18933 -24.67733,14.98667c-2.73491,1.09426 -5.83907,-0.23575 -6.93333,-2.97067c-1.09426,-2.73491 0.23575,-5.83907 2.97067,-6.93333c8.304,-3.32267 15.39733,-7.68533 21.184,-12.704c-4.50041,-5.29712 -8.06766,-11.32069 -10.54933,-17.81333c-1.03388,-2.75848 0.36419,-5.83279 3.12267,-6.86667c2.75848,-1.03388 5.83279,0.36419 6.86667,3.12267c1.91691,5.01514 4.62699,9.6898 8.02667,13.84533c5.68,-7.056 9.17333,-14.85867 10.28267,-22.63467h-36.94933c-2.94552,0 -5.33333,-2.38781 -5.33333,-5.33333c0,-2.94552 2.38781,-5.33333 5.33333,-5.33333h21.33333v-5.33333c0,-2.94552 2.38781,-5.33333 5.33333,-5.33333M341.88799,199.16267l-8.54933,-19.00267l-8.544,19.00267zM352.00532,119.16267c2.28082,0.00091 4.30863,1.4521 5.04533,3.61067l0.69333,2.016c1.59963,4.68826 5.2806,8.3712 9.968,9.97333l2.016,0.688c2.15611,0.73884 3.60444,2.76614 3.60444,5.04533c0,2.27919 -1.44833,4.3065 -3.60444,5.04533l-2.016,0.69333c-4.68826,1.59963 -8.3712,5.2806 -9.97333,9.968l-0.688,2.016c-0.73884,2.15611 -2.76614,3.60444 -5.04533,3.60444c-2.27919,0 -4.3065,-1.44833 -5.04533,-3.60444l-0.69333,-2.016c-1.59963,-4.68826 -5.2806,-8.3712 -9.968,-9.97333l-2.016,-0.688c-2.15611,-0.73884 -3.60444,-2.76614 -3.60444,-5.04533c0,-2.27919 1.44833,-4.3065 3.60444,-5.04533l2.016,-0.69333c4.68826,-1.59963 8.3712,-5.2806 9.97333,-9.968l0.688,-2.016c0.73671,-2.15857 2.76451,-3.60976 5.04533,-3.61067M352.00532,136.208c-1.26164,1.58773 -2.70027,3.02636 -4.288,4.288c1.59289,1.26222 3.02222,2.69156 4.288,4.288c1.26222,-1.59289 2.69156,-3.02222 4.288,-4.288c-1.58773,-1.26164 -3.02636,-2.70027 -4.288,-4.288" fill="#000000"/></g></g></svg>