<svg version="1.1" xmlns="http://www.w3.org/2000/svg" xmlns:xlink="http://www.w3.org/1999/xlink" width="47.83333" height="47.83333" viewBox="0,0,47.83333,47.83333"><g transform="translate(-296.08333,-156.08333)"><g data-paper-data="{&quot;isPaintingLayer&quot;:true}" fill-rule="nonzero" stroke-linejoin="miter" stroke-miterlimit="10" stroke-dasharray="" stroke-dashoffset="0" style="mix-blend-mode: normal"><path d="M296.08333,197.66667c0,-10.45122 0,-30.86522 0,-36.2963c0,-2.60603 2.66645,-5.28704 5.26191,-5.28704c5.55115,0 26.82448,0 37.03704,0c3.36907,0 5.53439,2.73473 5.53439,5.37963c0,5.50356 0,26.14665 0,36.48148c0,3.61765 -2.87903,5.97222 -5.62698,5.97222c-5.59264,0 -26.18052,0 -36.38889,0c-3.5289,0 -5.81746,-2.47514 -5.81746,-6.25z" fill="#ffffff" stroke="none" stroke-width="0" stroke-linecap="butt"/><path d="M296.08333,162.02369c0,-3.28076 2.65959,-5.94035 5.94035,-5.94035c3.28076,0 5.94035,2.65959 5.94035,5.94035c0,3.28076 -2.65959,5.94035 -5.94035,5.94035c-3.28076,0 -5.94035,-2.65959 -5.94035,-5.94035z" fill="#ffe6e6" stroke="none" stroke-width="0" stroke-linecap="butt"/><path d="M300.3125,197.92652c0,-6.89413 0,-31.86431 0,-35.77027c0,-1.00616 0.79709,-1.84375 1.76349,-1.84375c3.82148,0 28.67404,0 35.74022,0c1.1863,0 1.87129,0.8625 1.87129,1.89287c0,3.91709 0,28.49818 0,35.57692c0,1.20707 -0.80295,1.90521 -1.77514,1.90521c-3.81241,0 -28.42596,0 -35.625,0c-1.24991,0 -1.97486,-0.64268 -1.97486,-1.76098z" fill="#66ccff" stroke="#000000" stroke-width="0" stroke-linecap="butt"/><path d="M323.28028,185.54958c0,-3.28077 2.65958,-5.94035 5.94035,-5.94035c3.28077,0 5.94035,2.65958 5.94035,5.94035c0,3.28077 -2.65958,5.94035 -5.94035,5.94035c-3.28077,0 -5.94035,-2.65958 -5.94035,-5.94035z" fill="none" stroke="#ffffff" stroke-width="3" stroke-linecap="butt"/><path d="M304.83901,177.00175c0,-4.68983 3.80185,-8.49168 8.49168,-8.49168c4.68983,0 8.49168,3.80186 8.49168,8.49168c0,4.68983 -3.80186,8.49168 -8.49168,8.49168c-4.68983,0 -8.49168,-3.80186 -8.49168,-8.49168z" fill="none" stroke="#ffffff" stroke-width="3" stroke-linecap="butt"/><path d="M304.83901,177.08224v14.40769" fill="none" stroke="#ffffff" stroke-width="3" stroke-linecap="round"/><path d="M318.66707,191.48993l-2.88143,-5.99649" fill="none" stroke="#ffffff" stroke-width="3" stroke-linecap="round"/><path d="M335.16098,191.48993v-11.8807" fill="none" stroke="#ffffff" stroke-width="3" stroke-linecap="round"/><path d="M300.3125,162.1088c0,-0.99207 0.80424,-1.7963 1.79631,-1.7963c0.99207,0 1.7963,0.80423 1.7963,1.7963c0,0.99207 -0.80423,1.79631 -1.7963,1.79631c-0.99207,0 -1.79631,-0.80424 -1.79631,-1.79631z" fill="#fff6e6" stroke="none" stroke-width="0" stroke-linecap="butt"/></g></g></svg>