<svg version="1.1" xmlns="http://www.w3.org/2000/svg" xmlns:xlink="http://www.w3.org/1999/xlink" width="116.22159" height="35.56442" viewBox="0,0,116.22159,35.56442"><g transform="translate(-4.42816,-166.34094)"><g data-paper-data="{&quot;isPaintingLayer&quot;:true}" fill-rule="nonzero" stroke-linecap="butt" stroke-linejoin="miter" stroke-miterlimit="10" stroke-dasharray="" stroke-dashoffset="0" style="mix-blend-mode: normal"><g><path d="M4.42816,196.03126c0,-7.50699 0,-20.02384 0,-24.13795c0,-2.58829 2.76421,-5.55237 6.0146,-5.55237c11.86681,0 83.65947,0 104.52456,0c3.5987,0 5.68243,3.11396 5.68243,5.79433c0,4.06259 0,16.00325 0,23.46963c0,3.69946 -2.59431,6.30046 -5.68243,6.30046c-11.60699,0 -83.70739,0 -104.76853,0c-3.65308,0 -5.77063,-2.40084 -5.77063,-5.8741z" fill-opacity="0.12549" fill="#a6a6a6" stroke="#000000" stroke-width="0"/><text transform="translate(38.40855,187.74271) scale(0.30163,0.30163)" font-size="40" xml:space="preserve" fill="#000000" fill-rule="nonzero" stroke="none" stroke-width="1" stroke-linecap="butt" stroke-linejoin="miter" stroke-miterlimit="10" stroke-dasharray="" stroke-dashoffset="0" font-family="Sans Serif" font-weight="normal" text-anchor="start" style="mix-blend-mode: normal"><tspan x="0" dy="0">个性化</tspan></text><g stroke="#000000" stroke-width="0"><g><path d="M31.09935,188.76306c-0.5891,1.77242 -3.92811,2.2848 -4.18165,2.26385c-1.82819,-0.15109 -2.6593,-1.9696 -4.27327,-2.00404c-2.45441,0.01575 -1.08876,3.21135 -3.43779,3.32477c-2.70531,0.13062 -8.41393,-5.8733 -7.07884,-9.89015c1.33508,-4.01685 6.66431,-5.86161 11.90316,-4.12037c5.23885,1.74124 8.40348,6.40909 7.0684,10.42595z" fill="#c57d00"/><path d="M19.2737,188.22104c0,0.78779 -0.83719,1.42641 -1.86992,1.42641c-1.03273,0 -1.86992,-0.63863 -1.86992,-1.42641c0,-0.78779 0.83719,-1.42641 1.86992,-1.42641c1.03273,0 1.86992,0.63863 1.86992,1.42641z" fill="#ff0000"/><path d="M16.84744,184.1103c0,0.78779 -0.83719,1.42642 -1.86992,1.42642c-1.03273,0 -1.86992,-0.63863 -1.86992,-1.42642c0,-0.78779 0.83719,-1.42641 1.86992,-1.42641c1.03273,0 1.86992,0.63863 1.86992,1.42641z" fill="#ffff00"/><path d="M19.2737,180.64863c0,0.78779 -0.83719,1.42642 -1.86992,1.42642c-1.03273,0 -1.86992,-0.63863 -1.86992,-1.42642c0,-0.78779 0.83719,-1.42641 1.86992,-1.42641c1.03273,0 1.86992,0.63863 1.86992,1.42641z" fill="#00ff1d"/><path d="M24.25639,180.33955c0,0.78779 -0.83719,1.42642 -1.86992,1.42642c-1.03273,0 -1.86992,-0.63863 -1.86992,-1.42642c0,-0.78779 0.83719,-1.42641 1.86992,-1.42641c1.03273,0 1.86992,0.63863 1.86992,1.42641z" fill="#66ccff"/><path d="M28.45985,182.68389c0,0.78779 -0.83719,1.42642 -1.86992,1.42642c-1.03273,0 -1.86992,-0.63863 -1.86992,-1.42642c0,-0.78779 0.83719,-1.42641 1.86992,-1.42641c1.03273,0 1.86992,0.63863 1.86992,1.42641z" fill="#6c3bff"/><path d="M30.11342,186.78341c0,0.9766 -1.03784,1.76829 -2.31809,1.76829c-1.28024,0 -2.31809,-0.79169 -2.31809,-1.76829c0,-0.9766 1.03784,-1.76828 2.31809,-1.76828c1.28024,0 2.31809,0.79168 2.31809,1.76828z" fill="#b83bff"/></g><g><path d="M22.89606,190.50082c-1.61455,1.84247 -4.45593,2.76531 -4.45593,2.76531c0,0 0.6384,-0.57965 0.57625,-1.97536c-0.05664,-1.27199 -0.18938,-1.51722 0.44188,-3.17478c1.01611,-1.26872 1.90398,-1.38152 3.04442,-0.72035c0.87124,0.5051 1.25898,0.15469 0.39338,3.10519z" fill="#ffffff"/><path d="M20.99568,192.05368c-1.31023,0.80799 -2.55555,1.21245 -2.55555,1.21245c0,0 0.6384,-0.57965 0.57625,-1.97536c-0.05664,-1.27199 2.64819,0.35042 1.9793,0.76291z" fill="#66ccff"/><path d="M20.41859,186.82961c1.35273,-2.71725 3.16151,-5.80921 5.62254,-9.67605c0.54859,-0.81793 2.49292,-0.29168 2.08019,1.07642c-1.41491,3.89225 -3.11002,7.01573 -4.28787,10.055c-0.73264,1.27554 -1.7005,1.54158 -2.65524,0.97337c-1.26497,-0.75284 -1.3055,-0.85416 -0.75962,-2.42874z" fill="#7d4229"/></g></g></g></g></g></svg>