<svg version="1.1" xmlns="http://www.w3.org/2000/svg" xmlns:xlink="http://www.w3.org/1999/xlink" width="39.375" height="39.375" viewBox="0,0,39.375,39.375"><defs><linearGradient x1="300.82592" y1="160.86233" x2="339.15785" y2="199.19426" gradientUnits="userSpaceOnUse" id="color-1"><stop offset="0" stop-color="#adf8ff"/><stop offset="1" stop-color="#66ccff"/></linearGradient></defs><g transform="translate(-300.31251,-160.31252)"><g data-paper-data="{&quot;isPaintingLayer&quot;:true}" fill-rule="nonzero" stroke-linejoin="miter" stroke-miterlimit="10" stroke-dasharray="" stroke-dashoffset="0" style="mix-blend-mode: normal"><path d="M300.31251,197.92654c0,-6.89414 0,-31.86431 0,-35.77027c0,-1.00616 0.79709,-1.84375 1.76349,-1.84375c3.82147,0 28.67404,0 35.74022,0c1.1863,0 1.87129,0.8625 1.87129,1.89287c0,3.91709 0,28.49819 0,35.57692c0,1.20707 -0.80295,1.90521 -1.77514,1.90521c-3.81241,0 -28.42596,0 -35.625,0c-1.24991,0 -1.97486,-0.64268 -1.97486,-1.76098z" fill="url(#color-1)" stroke="#000000" stroke-width="0" stroke-linecap="butt"/><path d="M332.2117,167.76886c0,0 -0.10839,21.74924 -0.21446,23.38938c-0.10242,1.58365 -0.47561,3.39188 -3.46399,3.49468c-0.32123,0.01105 -9.13819,0.09217 -17.14672,0.02645c-2.66439,-0.0579 -3.25851,-1.4115 -3.50126,-3.27559c-0.06899,-1.57843 -0.09695,-25.94686 -0.09695,-25.94686l21.03423,-0.16169l-0.12857,25.86939" fill="none" stroke="#ffffff" stroke-width="2" stroke-linecap="round"/><path d="M310.92184,169.08508h14.78723" fill="none" stroke="#ffffff" stroke-width="2" stroke-linecap="round"/><path d="M310.97467,172.22337h14.78723" fill="none" stroke="#ffffff" stroke-width="2" stroke-linecap="round"/><path d="M310.92184,175.57445h5.68875" fill="none" stroke="#ffffff" stroke-width="2" stroke-linecap="round"/><path d="M316.63091,178.58529h-5.68875" fill="none" stroke="#ffffff" stroke-width="2" stroke-linecap="round"/><path d="M310.94216,181.51081h5.68875" fill="none" stroke="#ffffff" stroke-width="2" stroke-linecap="round"/><path d="M310.97467,184.61699h14.78723" fill="none" stroke="#ffffff" stroke-width="2" stroke-linecap="round"/><path d="M310.97467,187.7553h14.78723" fill="none" stroke="#ffffff" stroke-width="2" stroke-linecap="round"/><path d="M310.97467,190.94678h14.78723" fill="none" stroke="#ffffff" stroke-width="2" stroke-linecap="round"/><path d="M320,181.53189v-5.95744h5.70907v5.95744z" fill="#ffffff" stroke="#ffffff" stroke-width="2" stroke-linecap="butt"/></g></g></svg>