<svg version="1.1" xmlns="http://www.w3.org/2000/svg" xmlns:xlink="http://www.w3.org/1999/xlink" width="67" height="60.12673" viewBox="0,0,67,60.12673"><g transform="translate(-286.5,-149.93664)"><g data-paper-data="{&quot;isPaintingLayer&quot;:true}" fill-rule="nonzero" stroke="#66ccff" stroke-width="2" stroke-linecap="butt" stroke-linejoin="miter" stroke-miterlimit="10" stroke-dasharray="" stroke-dashoffset="0" style="mix-blend-mode: normal"><path d="M287.5,180c0,-7.03717 14.55075,-12.74194 32.5,-12.74194c17.94925,0 32.5,5.70476 32.5,12.74194c0,7.03717 -14.55075,12.74194 -32.5,12.74194c-17.94925,0 -32.5,-5.70476 -32.5,-12.74194z" fill="none"/><path d="M335.82462,208.38717c-6.14663,3.42648 -18.21438,-6.50517 -26.95408,-22.18297c-8.7397,-15.6778 -10.84179,-31.16488 -4.69516,-34.59136c6.14663,-3.42648 18.21438,6.50517 26.95408,22.18297c8.7397,15.6778 10.84179,31.16488 4.69516,34.59136z" fill="none"/><path d="M309.2012,173.23666c9.52735,-15.21201 22.08559,-24.51573 28.0496,-20.78044c5.96401,3.73529 3.07536,19.09511 -6.452,34.30712c-9.52735,15.21201 -22.08559,24.51573 -28.0496,20.78044c-5.96401,-3.73529 -3.07536,-19.09511 6.452,-34.30712z" data-paper-data="{&quot;index&quot;:null}" fill="none"/><path d="M314.27419,180c0,-3.16228 2.56353,-5.72581 5.72581,-5.72581c3.16228,0 5.72581,2.56353 5.72581,5.72581c0,3.16228 -2.56353,5.72581 -5.72581,5.72581c-3.16228,0 -5.72581,-2.56353 -5.72581,-5.72581z" fill="#66ccff"/></g></g></svg>