<svg version="1.1" xmlns="http://www.w3.org/2000/svg" xmlns:xlink="http://www.w3.org/1999/xlink" width="52.76924" height="52.76922" viewBox="0,0,52.76924,52.76922"><defs><radialGradient cx="30.87303" cy="47.5839" r="10.3596" gradientUnits="userSpaceOnUse" id="color-1"><stop offset="0" stop-color="#000000" stop-opacity="0.50196"/><stop offset="1" stop-color="#000000" stop-opacity="0"/></radialGradient><radialGradient cx="30.33814" cy="69.8839" r="17.0501" gradientUnits="userSpaceOnUse" id="color-2"><stop offset="0" stop-color="#000000" stop-opacity="0.50196"/><stop offset="1" stop-color="#000000" stop-opacity="0"/></radialGradient></defs><g transform="translate(-3.23077,-31.64162)"><g data-paper-data="{&quot;isPaintingLayer&quot;:true}" fill-rule="nonzero" stroke-linecap="butt" stroke-linejoin="miter" stroke-miterlimit="10" stroke-dasharray="" stroke-dashoffset="0" style="mix-blend-mode: normal"><path d="M4.23077,58.02623c0,-14.01953 11.36508,-25.38461 25.38462,-25.38461c14.01954,0 25.38462,11.36508 25.38462,25.38461c0,14.01954 -11.36508,25.38461 -25.38461,25.38461c-14.01953,0 -25.38461,-11.36508 -25.38461,-25.38461z" fill="#b3b3b3" stroke-opacity="0.66275" stroke="#a9a9a9" stroke-width="2"/><path d="M20.51342,47.5839c0,-5.72145 4.63816,-10.3596 10.35961,-10.3596c5.72145,0 10.35959,4.63815 10.35959,10.3596c0,5.72145 -4.63815,10.35961 -10.35959,10.35961c-5.72145,0 -10.35961,-4.63815 -10.35961,-10.35961z" fill="url(#color-1)" stroke="none" stroke-width="0"/><path d="M13.36242,69.34701c3.58758,-5.88403 9.14923,-9.26266 16.54484,-9.26266c8.064,0 14.12069,4.12079 17.44525,10.90445c0.66817,1.36338 -8.14073,9.0545 -17.55201,8.68151c-9.30188,-0.36866 -17.37629,-8.7845 -16.43806,-10.3233z" fill="url(#color-2)" stroke="none" stroke-width="0"/><path d="M19.06792,46.72864c0,-5.72145 4.63816,-10.35961 10.35961,-10.35961c5.72145,0 10.3596,4.63815 10.3596,10.35961c0,5.72145 -4.63815,10.3596 -10.3596,10.3596c-5.72144,0 -10.35961,-4.63815 -10.35961,-10.3596z" fill="#e6e6e6" stroke="#999999" stroke-width="1"/><path d="M11.91692,68.36355c3.58758,-5.88403 9.14923,-9.26266 16.54484,-9.26266c8.064,0 14.12068,4.12079 17.44524,10.90445c0.66817,1.36338 -8.14074,9.0545 -17.55201,8.68151c-9.30188,-0.36866 -17.37629,-8.7845 -16.43807,-10.3233z" fill="#e6e6e6" stroke="#999999" stroke-width="1"/></g></g></svg>