<svg version="1.1" xmlns="http://www.w3.org/2000/svg" xmlns:xlink="http://www.w3.org/1999/xlink" width="252.1369" height="72.29906" viewBox="0,0,252.1369,72.29906"><g transform="translate(-195.18155,-143.56794)"><g data-paper-data="{&quot;isPaintingLayer&quot;:true}" fill="none" fill-rule="nonzero" stroke-linejoin="miter" stroke-miterlimit="10" stroke-dasharray="" stroke-dashoffset="0" style="mix-blend-mode: normal"><path d="M198.93155,171.73815c0,-9.36997 7.59586,-16.96583 16.96583,-16.96583c9.36997,0 16.96583,7.59586 16.96583,16.96583c0,9.36997 -7.59586,16.96583 -16.96583,16.96583c-9.36997,0 -16.96583,-7.59586 -16.96583,-16.96583z" stroke="#ffffff" stroke-width="7.5" stroke-linecap="butt"/><path d="M198.93155,171.73815v37.94195" stroke="#ffffff" stroke-width="7.5" stroke-linecap="round"/><path d="M219.59058,188.70398l8.93322,20.97612" stroke="#ffffff" stroke-width="7.5" stroke-linecap="round"/><path d="M238.11454,199.16251c0,-5.7924 4.69566,-10.48806 10.48806,-10.48806c5.7924,0 10.48806,4.69566 10.48806,10.48806c0,5.7924 -4.69566,10.48806 -10.48806,10.48806c-5.7924,0 -10.48806,-4.69566 -10.48806,-10.48806z" stroke="#ffffff" stroke-width="7.5" stroke-linecap="butt"/><path d="M259.09064,209.70963v-21.03517" stroke="#ffffff" stroke-width="7.5" stroke-linecap="round"/><path d="M269.99751,199.16251c0,-5.7924 4.69566,-10.48806 10.48806,-10.48806c5.7924,0 10.48806,4.69566 10.48806,10.48806c0,5.7924 -4.69566,10.48806 -10.48806,10.48806c-5.7924,0 -10.48806,-4.69566 -10.48806,-10.48806z" stroke="#ffffff" stroke-width="7.5" stroke-linecap="butt"/><path d="M290.97363,159.21084v50.43973" stroke="#ffffff" stroke-width="7.5" stroke-linecap="round"/><path d="M303.00087,209.6801v-21.03517" stroke="#ffffff" stroke-width="7.5" stroke-linecap="round"/><path d="M303.00087,178.78219v0.12098" stroke="#ffffff" stroke-width="7.5" stroke-linecap="round"/><path d="M331.3096,204.87052c0,0 -3.10437,5.0099 -8.58892,5.29674c-5.81707,0.01196 -8.46891,-4.63797 -8.46891,-6.46371c0,-5.57436 0,-15.02909 0,-15.02909" stroke="#ffffff" stroke-width="7.5" stroke-linecap="round"/><path d="M331.3096,188.64493v21.03517" stroke="#ffffff" stroke-width="7.5" stroke-linecap="round"/><path d="M342.07659,193.95646c0,0 3.10437,-5.00989 8.58892,-5.29673c5.81707,-0.01196 8.46891,4.63797 8.46891,6.46371c0,5.57436 0,15.02909 0,15.02909" stroke="#ffffff" stroke-width="7.5" stroke-linecap="round"/><path d="M342.0766,189.14689v21.03517" stroke="#ffffff" stroke-width="7.5" stroke-linecap="round"/><path d="M359.13442,193.95646c0,0 3.10437,-5.00989 8.58892,-5.29673c5.81707,-0.01196 8.46891,4.63797 8.46891,6.46371c0,5.57436 0,15.02909 0,15.02909" stroke="#ffffff" stroke-width="7.5" stroke-linecap="round"/><path d="M346.57846,175.98972c0.09955,-6.35907 5.48917,-26.52564 29.82482,-26.16706c23.98115,0.35336 30.77738,20.04429 31.52219,25.12505c0.71912,4.9055 1.48444,11.93989 -3.68508,21.35365c-4.81558,8.76922 -12.33595,12.00174 -15.92413,12.77514" stroke="#66ccff" stroke-width="12.5" stroke-linecap="round"/><path d="M441.06845,161.22731c0,0 -10.23748,-10.79273 -26.33302,-10.85606c-18.50095,-0.07279 -25.53397,7.42938 -25.76047,17.91816c-0.18175,8.4165 9.70234,14.81153 24.88048,11.49279c14.18852,-3.10236 27.26994,-0.7893 26.82107,13.47925c-0.37783,12.01049 -13.42725,15.96204 -28.24167,16.35555c-15.90202,0.4224 -23.88908,-10.19489 -23.88908,-10.19489" stroke="#66ccff" stroke-width="12.5" stroke-linecap="round"/></g></g></svg>