<svg version="1.1" xmlns="http://www.w3.org/2000/svg" xmlns:xlink="http://www.w3.org/1999/xlink" width="116.22159" height="35.56442" viewBox="0,0,116.22159,35.56442"><g transform="translate(-4.42816,-128.13184)"><g data-paper-data="{&quot;isPaintingLayer&quot;:true}" fill-rule="nonzero" stroke-linejoin="miter" stroke-miterlimit="10" stroke-dasharray="" stroke-dashoffset="0" style="mix-blend-mode: normal"><path d="M4.42816,157.82216c0,-7.50699 0,-20.02384 0,-24.13795c0,-2.58829 2.76421,-5.55237 6.0146,-5.55237c11.86681,0 83.65947,0 104.52456,0c3.5987,0 5.68243,3.11396 5.68243,5.79433c0,4.06259 0,16.00326 0,23.46963c0,3.69946 -2.59431,6.30046 -5.68243,6.30046c-11.60699,0 -83.70739,0 -104.76853,0c-3.65308,0 -5.77063,-2.40084 -5.77063,-5.8741z" fill-opacity="0.12549" fill="#a6a6a6" stroke="#000000" stroke-width="0" stroke-linecap="butt"/><path d="M13.20251,143.18638c0,-2.43004 1.96994,-4.39998 4.39998,-4.39998c2.43004,0 4.39998,1.96994 4.39998,4.39998c0,2.43004 -1.96994,4.39998 -4.39998,4.39998c-2.43004,0 -4.39998,-1.96994 -4.39998,-4.39998z" fill="none" stroke="#66ccff" stroke-width="2" stroke-linecap="butt"/><path d="M13.20251,153.02639v-9.84" fill="none" stroke="#66ccff" stroke-width="2" stroke-linecap="round"/><path d="M20.87707,153.02638l-2.31677,-5.44002" fill="none" stroke="#66ccff" stroke-width="2" stroke-linecap="round"/><path d="M22.60854,150.30637c0,-1.50222 1.21779,-2.72001 2.72001,-2.72001c1.50222,0 2.72002,1.21779 2.72002,2.72001c0,1.50222 -1.21779,2.72001 -2.72001,2.72001c-1.50222,0 -2.72001,-1.21779 -2.72001,-2.72001z" fill="none" stroke="#66ccff" stroke-width="2" stroke-linecap="butt"/><path d="M28.04856,153.0417v-5.45534" fill="none" stroke="#66ccff" stroke-width="2" stroke-linecap="round"/><text transform="translate(38.40856,149.53361) scale(0.30163,0.30163)" font-size="40" xml:space="preserve" fill="#000000" fill-rule="nonzero" stroke="none" stroke-width="1" stroke-linecap="butt" stroke-linejoin="miter" stroke-miterlimit="10" stroke-dasharray="" stroke-dashoffset="0" font-family="Sans Serif" font-weight="normal" text-anchor="start" style="mix-blend-mode: normal"><tspan x="0" dy="0">系统</tspan></text></g></g></svg>