<svg version="1.1" xmlns="http://www.w3.org/2000/svg" xmlns:xlink="http://www.w3.org/1999/xlink" width="116.22159" height="35.56443" viewBox="0,0,116.22159,35.56443"><g transform="translate(-4.42816,-90.23212)"><g data-paper-data="{&quot;isPaintingLayer&quot;:true}" fill-rule="nonzero" stroke-linecap="butt" stroke-linejoin="miter" stroke-miterlimit="10" stroke-dasharray="" stroke-dashoffset="0" style="mix-blend-mode: normal"><path d="M4.42816,119.92244c0,-7.50699 0,-20.02384 0,-24.13795c0,-2.5883 2.7642,-5.55237 6.0146,-5.55237c11.86681,0 83.65947,0 104.52456,0c3.5987,0 5.68243,3.11396 5.68243,5.79433c0,4.06258 0,16.00326 0,23.46964c0,3.69946 -2.59431,6.30046 -5.68243,6.30046c-11.607,0 -83.70739,0 -104.76853,0c-3.65308,0 -5.77063,-2.40083 -5.77063,-5.8741z" fill-opacity="0.12549" fill="#a6a6a6" stroke="#000000" stroke-width="0"/><path d="M14.56421,115.95099v-9.85389h14.2049v9.85389z" fill="#000000" stroke="#000000" stroke-width="0"/><path d="M12.01805,106.7044l10.18465,-6.9057l9.11258,6.9057z" fill="#000000" stroke="none" stroke-width="0"/><path d="M25.36146,104.13909v-4.3404h1.79954v4.3404z" fill="#000000" stroke="#000000" stroke-width="0"/><text transform="translate(38.40852,111.4944) scale(0.30163,0.30163)" font-size="40" xml:space="preserve" fill="#000000" fill-rule="nonzero" stroke="none" stroke-width="1" stroke-linecap="butt" stroke-linejoin="miter" stroke-miterlimit="10" stroke-dasharray="" stroke-dashoffset="0" font-family="Sans Serif" font-weight="normal" text-anchor="start" style="mix-blend-mode: normal"><tspan x="0" dy="0">主页</tspan></text></g></g></svg>