<svg version="1.1" xmlns="http://www.w3.org/2000/svg" xmlns:xlink="http://www.w3.org/1999/xlink" width="96.17744" height="95.91744" viewBox="0,0,96.17744,95.91744"><g transform="translate(-271.91128,-132.04128)"><g data-paper-data="{&quot;isPaintingLayer&quot;:true}" fill="#000000" fill-rule="nonzero" stroke="none" stroke-width="1" stroke-linecap="butt" stroke-linejoin="miter" stroke-miterlimit="10" stroke-dasharray="" stroke-dashoffset="0" style="mix-blend-mode: normal"><path d="M364.57528,149.70272c4.68458,4.686 4.68458,12.282 0,16.968l-13.64,13.672c5.29716,1.36772 8.99866,6.14512 9,11.616v24c0,6.62742 -5.37258,12 -12,12h-64c-2.552,0 -4.928,-0.8 -6.872,-2.16c-3.112,-2.168 -5.152,-5.768 -5.152,-9.848v-64c0,-6.62742 5.37258,-12 12,-12h24c5.62449,0.00138 10.49336,3.90911 11.712,9.4l13.832,-13.8c4.68508,-4.67925 12.27492,-4.67925 16.96,0zM319.91128,179.95072h12.64l-12.64,-12.64zM311.91128,151.95072c0,-2.20914 -1.79086,-4 -4,-4h-24c-2.20914,0 -4,1.79086 -4,4v28h32zM281.62328,219.23072c0.67106,0.4684 1.46964,0.7197 2.288,0.72h28v-32h-31.976v28c-0.00516,1.30301 0.62468,2.52687 1.688,3.28M347.93528,219.95072c2.20914,0 4,-1.79086 4,-4v-24c0,-2.20914 -1.79086,-4 -4,-4h-28.024v32z"/></g></g></svg>