<svg version="1.1" xmlns="http://www.w3.org/2000/svg" xmlns:xlink="http://www.w3.org/1999/xlink" width="376.93292" height="104.17024" viewBox="0,0,376.93292,104.17024"><g transform="translate(-130.28354,-136.25198)"><g data-paper-data="{&quot;isPaintingLayer&quot;:true}" fill-rule="nonzero" stroke-linejoin="miter" stroke-miterlimit="10" stroke-dasharray="" stroke-dashoffset="0" style="mix-blend-mode: normal"><path d="M386.38502,196.45114c0,0 11.79535,20.85265 31.02244,21.28023c18.85089,0.41921 32.88053,-7.06461 39.27053,-23.89221c3.13652,-8.25982 -17.53402,-19.8906 -36.19192,-12.64202c-17.93189,6.96653 -38.42092,-1.05537 -36.62691,-10.41537c3.19999,-16.6955 22.64767,-28.63604 34.66422,-28.52908c32.21215,0.28673 38.34638,24.60719 38.34638,24.60719" fill="none" stroke="#66ccff" stroke-width="12" stroke-linecap="round"/><path d="M344.87639,180c0,-20.84766 16.90037,-37.74802 37.74802,-37.74802c20.84766,0 37.74802,16.90037 37.74802,37.74802c0,20.84766 -16.90037,37.74802 -37.74802,37.74802c-20.84766,0 -37.74802,-16.90037 -37.74802,-37.74802z" fill="none" stroke="#66ccff" stroke-width="12" stroke-linecap="butt"/><g><path d="M193.9591,197.39149c0,-10.61649 8.60636,-19.22284 19.22285,-19.22284c10.61649,0 19.22285,8.60635 19.22285,19.22284c0,10.61649 -8.60636,19.22285 -19.22285,19.22285c-10.61649,0 -19.22285,-8.60636 -19.22285,-19.22285z" fill="none" stroke="#ffffff" stroke-width="8" stroke-linecap="butt"/><path d="M243.2596,197.39149c0,-10.61649 8.60636,-19.22284 19.22285,-19.22284c10.61649,0 19.22285,8.60635 19.22285,19.22284c0,10.61649 -8.60636,19.22285 -19.22285,19.22285c-10.61649,0 -19.22285,-8.60636 -19.22285,-19.22285z" fill="none" stroke="#ffffff" stroke-width="8" stroke-linecap="butt"/><g fill="none" stroke="#ffffff" stroke-width="8"><path d="M134.28354,169.73089c0,-15.17618 12.30272,-27.4789 27.4789,-27.4789c15.17618,0 27.47891,12.30273 27.47891,27.4789c0,15.17618 -12.30273,27.47891 -27.47891,27.47891c-15.17618,0 -27.4789,-12.30273 -27.4789,-27.47891z" stroke-linecap="butt"/><path d="M134.28354,169.99135v46.62298" stroke-linecap="round"/><path d="M169.70658,197.2098l9.32426,19.40453" stroke-linecap="round"/></g><path d="M134.28354,169.73089c0,-15.17618 12.30272,-27.4789 27.4789,-27.4789c15.17618,0 27.47891,12.30273 27.47891,27.4789c0,15.17618 -12.30273,27.47891 -27.47891,27.47891c-15.17618,0 -27.4789,-12.30273 -27.4789,-27.47891z" fill="none" stroke="#ffffff" stroke-width="8" stroke-linecap="butt"/><path d="M134.28354,169.99135v46.62298" fill="none" stroke="#ffffff" stroke-width="8" stroke-linecap="round"/><path d="M169.70658,197.2098l9.32426,19.40453" fill="none" stroke="#ffffff" stroke-width="8" stroke-linecap="round"/><path d="M232.40479,178.16865v38.44568" fill="none" stroke="#ffffff" stroke-width="8" stroke-linecap="round"/><path d="M294.20733,216.61433v-38.44568" fill="#ffffff" stroke="#ffffff" stroke-width="8" stroke-linecap="round"/><path d="M331.71345,207.65061c0,0 -0.32261,10.45228 -13.66814,10.08812c-11.69612,-0.31915 -12.98716,-10.19546 -12.98716,-10.19546v-29.37462" fill="none" stroke="#ffffff" stroke-width="8" stroke-linecap="round"/><path d="M342.56427,188.26606c0,0 0.32261,-10.45228 13.66814,-10.08812c11.69612,0.31915 12.98715,10.19546 12.98715,10.19546v29.37462" fill="none" stroke="#ffffff" stroke-width="8" stroke-linecap="round"/><path d="M369.21955,188.26606c0,0 0.32261,-10.45228 13.66814,-10.08812c11.69612,0.31915 12.98716,10.19546 12.98716,10.19546v29.37462" fill="none" stroke="#ffffff" stroke-width="8" stroke-linecap="round"/><path d="M331.71343,178.16865v38.44568" fill="none" stroke="#ffffff" stroke-width="8" stroke-linecap="round"/><path d="M342.56427,217.74802v-38.44568" fill="none" stroke="#ffffff" stroke-width="8" stroke-linecap="round"/><path d="M281.94117,216.61433v-74.36235" fill="none" stroke="#ffffff" stroke-width="8" stroke-linecap="round"/><path d="M290.20733,168.02548c0,-2.20914 1.79086,-4 4,-4c2.20914,0 4,1.79086 4,4c0,2.20914 -1.79086,4 -4,4c-2.20914,0 -4,-1.79086 -4,-4z" fill="#ffffff" stroke="none" stroke-width="0.5" stroke-linecap="butt"/></g><path d="M467.99571,179.97272c0,0 0,-26.39766 0,-32.57432c0,-2.4551 2.73406,-5.14643 5.21739,-5.14643c6.19828,0 32.50336,0 32.50336,0c0,0 0,25.67198 0,32.00918c0,2.67693 -2.96719,5.71158 -5.6014,5.71158c-6.30791,0 -32.11935,0 -32.11935,0z" fill="none" stroke="#ffffff" stroke-width="3" stroke-linecap="butt"/><path d="M473.44576,172.86236v-23.50004" fill="none" stroke="#ffffff" stroke-width="4" stroke-linecap="round"/><path d="M473.44576,160.78821v-11.42589h8.73041c0,0 4.15994,0.51334 4.26821,5.42932c0.11734,5.32777 -4.26821,5.99657 -4.26821,5.99657z" fill="none" stroke="#ffffff" stroke-width="4" stroke-linecap="butt"/><path d="M482.33751,161.11235l2.78537,11.58795" fill="none" stroke="#ffffff" stroke-width="4" stroke-linecap="round"/><path d="M490.91043,149.36232v23.50004" fill="none" stroke="#ffffff" stroke-width="4" stroke-linecap="round"/><path d="M490.91043,149.36232h9.35598" fill="none" stroke="#ffffff" stroke-width="4" stroke-linecap="round"/><path d="M500.26641,172.86237h-9.35598" fill="none" stroke="#ffffff" stroke-width="4" stroke-linecap="round"/><path d="M490.91042,161.11235h9.35598" fill="none" stroke="#ffffff" stroke-width="4" stroke-linecap="round"/><text transform="translate(388.07893,236.51134) scale(0.31287,0.31287)" font-size="40" xml:space="preserve" fill="#ffffff" fill-rule="nonzero" stroke="none" stroke-width="1" stroke-linecap="butt" stroke-linejoin="miter" stroke-miterlimit="10" stroke-dasharray="" stroke-dashoffset="0" font-family="Sans Serif" font-weight="normal" text-anchor="start" style="mix-blend-mode: normal"><tspan x="0" dy="0">Professional</tspan></text></g></g></svg>