<svg version="1.1" xmlns="http://www.w3.org/2000/svg" xmlns:xlink="http://www.w3.org/1999/xlink" width="55.125" height="55.125" viewBox="0,0,55.125,55.125"><g transform="translate(-292.4375,-152.4375)"><g data-paper-data="{&quot;isPaintingLayer&quot;:true}" fill-rule="nonzero" stroke="#000000" stroke-linejoin="miter" stroke-miterlimit="10" stroke-dasharray="" stroke-dashoffset="0" style="mix-blend-mode: normal"><path d="M292.4375,205.09713c0,-9.6518 0,-44.61003 0,-50.07838c0,-1.40862 1.11593,-2.58125 2.46889,-2.58125c5.35006,0 40.14366,0 50.03631,0c1.66082,0 2.61981,1.2075 2.61981,2.65002c0,5.48393 0,39.89747 0,49.80769c0,1.6899 -1.12413,2.66729 -2.4852,2.66729c-5.33737,0 -39.79634,0 -49.875,0c-1.74987,0 -2.7648,-0.89975 -2.7648,-2.46537z" fill="#ffffff" stroke-width="0" stroke-linecap="butt"/><path d="M292.4375,205.09713c0,-5.55253 0,-31.35047 0,-31.35047l9.84116,-11.4982l41.49013,25.20637l-5.05546,20.10765c0,0 -35.85162,0 -43.51103,0c-1.74987,0 -2.7648,-0.89975 -2.7648,-2.46537z" fill="#000000" stroke-width="0" stroke-linecap="butt"/><path d="M295.03334,180c0,-13.78871 11.17795,-24.96668 24.96666,-24.96668c13.78871,0 24.96666,11.17795 24.96666,24.96668c0,13.78871 -11.17795,24.96668 -24.96666,24.96668c-13.78871,0 -24.96666,-11.17795 -24.96666,-24.96668z" fill="#404040" stroke-width="0" stroke-linecap="butt"/><path d="M297.03068,180c0,-12.68561 10.28371,-22.96934 22.96932,-22.96934c12.68561,0 22.96932,10.28373 22.96932,22.96934c0,12.68561 -10.28371,22.96934 -22.96932,22.96934c-12.68561,0 -22.96932,-10.28373 -22.96932,-22.96934z" fill="#ffffff" stroke-width="0" stroke-linecap="butt"/><path d="M320.29351,162.16287v-3.35887" fill="none" stroke-width="2" stroke-linecap="round"/><path d="M320.29351,201.17734v-3.35887" fill="none" stroke-width="2" stroke-linecap="round"/><path d="M298.7968,179.99929h3.35885" fill="none" stroke-width="2" stroke-linecap="round"/><path d="M337.63902,179.99929h3.35887" fill="none" stroke-width="2" stroke-linecap="round"/><path d="M320,180l12.86979,-2.74845" fill="none" stroke-width="2" stroke-linecap="round"/><path d="M320,180l3.68141,-6.17214" fill="none" stroke-width="2" stroke-linecap="round"/></g></g></svg>