<svg version="1.1" xmlns="http://www.w3.org/2000/svg" xmlns:xlink="http://www.w3.org/1999/xlink" width="1021.67346" height="822.72215" viewBox="0,0,1021.67346,822.72215"><g transform="translate(260.82574,241.32377)"><g data-paper-data="{&quot;isPaintingLayer&quot;:true}" fill-rule="nonzero" stroke-width="0" stroke-linecap="butt" stroke-linejoin="miter" stroke-miterlimit="10" stroke-dasharray="" stroke-dashoffset="0" style="mix-blend-mode: normal"><path d="M-127.38385,215.00238l317.38974,86.62996l-76.36076,279.76604l-317.38974,-86.62996z" fill="#80d4ff" stroke="#000000"/><path d="M524.17601,200.66719l-111.87245,-257.77035l236.67171,-102.71563l111.87245,257.77035z" fill="#80d4ff" stroke="none"/><path d="M-192.36437,168.24202l343.43693,93.73941l-68.46137,250.82472l-343.43693,-93.73941z" fill="#a6e1ff" stroke="none"/><path d="M550.25758,132.66166l-100.3269,-231.16772l199.06109,-86.39261l100.3269,231.16772z" fill="#a6e1ff" stroke="none"/><path d="M-171.8352,138.60162l282.66017,77.1507l-63.98505,234.42464l-282.66017,-77.1507z" fill="#d9f2ff" stroke="none"/><path d="M580.16442,68.44655l-103.51188,-238.50637l164.20247,-71.26395l103.51188,238.50637z" fill="#d9f2ff" stroke="none"/><path d="M207.88447,92.52361l-273.02014,66.49061l-61.04833,-250.6733l273.02014,-66.49062z" fill="#80d4ff" stroke="none"/><path d="M145.29349,55.27622l-244.84369,59.6286l-51.34685,-210.83762l244.84368,-59.6286z" fill="#a6e1ff" stroke="none"/><path d="M87.08726,14.90252l-252.6165,61.52157l-42.35523,-173.91674l252.6165,-61.52157z" fill="#d9f2ff" stroke="none"/><path d="M320,297.81684l273.02014,-66.49062l61.04832,250.67329l-273.02014,66.49062z" data-paper-data="{&quot;index&quot;:null}" fill="#80d4ff" stroke="none"/><path d="M382.59099,335.06423l244.84369,-59.6286l51.34685,210.83762l-244.84369,59.6286z" data-paper-data="{&quot;index&quot;:null}" fill="#a6e1ff" stroke="none"/><path d="M440.79721,375.43792l252.61651,-61.52157l42.35523,173.91674l-252.6165,61.52157z" data-paper-data="{&quot;index&quot;:null}" fill="#d9f2ff" stroke="none"/></g></g></svg>