<svg version="1.1" xmlns="http://www.w3.org/2000/svg" xmlns:xlink="http://www.w3.org/1999/xlink" width="96" height="96" viewBox="0,0,96,96"><g transform="translate(-272,-132)"><g data-paper-data="{&quot;isPaintingLayer&quot;:true}" fill="#000000" fill-rule="nonzero" stroke="none" stroke-width="1" stroke-linecap="butt" stroke-linejoin="miter" stroke-miterlimit="10" stroke-dasharray="" stroke-dashoffset="0" style="mix-blend-mode: normal"><path d="M357.33333,132c5.89104,0 10.66667,4.77563 10.66667,10.66667v74.66667c0,5.89104 -4.77563,10.66667 -10.66667,10.66667h-74.66667c-5.89104,0 -10.66667,-4.77563 -10.66667,-10.66667v-74.66667c0,-5.89104 4.77563,-10.66667 10.66667,-10.66667h74.66667M330.34667,194.98667c3.36,-3.36 5.22667,-7.84 5.22667,-12.64c0,-4.8 -1.86667,-9.28 -5.22667,-12.69333c-1.76,-1.70667 -4.85333,-1.76 -6.61333,0c-0.88599,0.87217 -1.38492,2.06342 -1.38492,3.30667c0,1.24325 0.49892,2.43449 1.38492,3.30667c1.6,1.65333 2.56,3.73333 2.56,6.08c0,2.29333 -0.96,4.48 -2.56,6.13333l-11.73333,11.68c-3.25333,3.30667 -8.90667,3.30667 -12.16,0c-1.63268,-1.60174 -2.55256,-3.79282 -2.55256,-6.08c0,-2.28718 0.91988,-4.47826 2.55256,-6.08l2.13333,-2.18667l-0.26667,-0.8c-0.85333,-2.34667 -1.28,-5.01333 -1.22667,-7.68l0.05333,-3.2l-7.2,7.25333c-7.09333,7.04 -7.09333,18.4 0,25.28c3.41333,3.57333 8,5.33333 12.58667,5.33333c4.58667,0 9.17333,-1.76 12.64,-5.33333l11.78667,-11.68M346.66667,178.61333c3.46667,-3.41333 5.33333,-7.89333 5.33333,-12.69333c0,-4.8 -1.86667,-9.28 -5.33333,-12.58667c-3.32067,-3.39124 -7.86703,-5.30246 -12.61333,-5.30246c-4.7463,0 -9.29266,1.91122 -12.61333,5.30246l-11.78667,11.68c-6.99195,6.99712 -6.99195,18.33621 0,25.33333c0.90667,0.90667 2.13333,1.33333 3.30667,1.33333c1.23693,0.01967 2.42936,-0.46115 3.30667,-1.33333c0.90667,-0.85333 1.38667,-2.02667 1.38667,-3.30667c0,-1.28 -0.48,-2.45333 -1.38667,-3.30667c-1.6,-1.65333 -2.56,-3.73333 -2.56,-6.08c0,-2.29333 0.96,-4.48 2.56,-6.08l11.73333,-11.73333c3.2,-3.25333 8.90667,-3.30667 12.16,0c1.63268,1.60174 2.55256,3.79282 2.55256,6.08c0,2.28718 -0.91988,4.47826 -2.55256,6.08l-2.13333,2.24l0.26667,0.74667c0.85333,2.34667 1.28,5.01333 1.22667,7.68v3.2l7.14667,-7.25333"/></g></g></svg>