<svg version="1.1" xmlns="http://www.w3.org/2000/svg" xmlns:xlink="http://www.w3.org/1999/xlink" width="153.23098" height="312.52414" viewBox="0,0,153.23098,312.52414"><g transform="translate(-485.87666,-16.81612)"><g data-paper-data="{&quot;isPaintingLayer&quot;:true}" fill="#ffffff" fill-rule="nonzero" stroke="#000000" stroke-width="0" stroke-linecap="butt" stroke-linejoin="miter" stroke-miterlimit="10" stroke-dasharray="" stroke-dashoffset="0" style="mix-blend-mode: normal"><path d="M485.87667,208.047c0,-26.57144 0,-172.32517 0,-187.12619c0,-2.38681 1.82679,-4.10469 4.25154,-4.10469c12.87368,0 122.4995,0 144.96617,0c2.5824,0 4.01326,1.685 4.01326,4.03258c0,14.61309 0,159.06765 0,186.76564c0,2.95292 -1.71471,4.57879 -4.01326,4.57879c-12.5257,0 -121.84068,-0.00001 -144.94167,-0.00001c-2.74801,0 -4.27603,-1.46746 -4.27603,-4.14611z"/><path d="M485.87666,325.37043c0,-18.43752 0,-95.27481 0,-106.14634c0,-2.50602 1.70269,-4.52067 3.98759,-4.52067c12.54755,0 122.82075,0 145.26617,0c2.55973,0 3.9772,1.66225 3.9772,3.79957c0,10.10616 0,87.46792 0,106.579c0,2.71844 -1.73162,4.25827 -4.04931,4.25827c-12.55216,0 -121.47428,-0.00001 -144.79745,-0.00001c-2.81604,0 -4.3842,-1.43145 -4.3842,-3.96982z"/></g></g></svg>