<svg version="1.1" xmlns="http://www.w3.org/2000/svg" xmlns:xlink="http://www.w3.org/1999/xlink" width="166.42857" height="199.82617" viewBox="0,0,166.42857,199.82617"><g transform="translate(-236.78573,-128.61404)"><g data-paper-data="{&quot;isPaintingLayer&quot;:true}" fill-rule="nonzero" stroke="#000000" stroke-width="0" stroke-linecap="butt" stroke-linejoin="miter" stroke-miterlimit="10" stroke-dasharray="" stroke-dashoffset="0" style="mix-blend-mode: normal"><path d="M236.78575,322.1934c0,-31.35519 0,-170.74871 0,-187.72335c0,-3.32608 2.62701,-5.856 5.95658,-5.856c15.17424,0 127.4196,0 154.57125,0c3.77113,0 5.90073,2.29037 5.90073,5.34921c0,16.32722 0,156.25419 0,188.12878c0,4.13167 -2.59978,6.34818 -5.90073,6.34818c-15.05248,0 -126.5863,0 -154.36854,0c-3.9953,0 -6.1593,-2.2423 -6.1593,-6.24682z" fill="#ffffff"/><path d="M236.78575,322.1934c0,-31.35519 0,-170.74871 0,-187.72335c0,-3.32608 2.62701,-5.856 5.95658,-5.856c2.60301,0 15.33791,0 15.33791,0v199.82617c0,0 -11.43431,0 -15.1352,0c-3.9953,0 -6.1593,-2.2423 -6.1593,-6.24682z" fill="#f2f2f2"/><path d="M236.78575,322.1934c0,-4.5235 0,-19.62425 0,-19.62425h166.42856c0,0 0,14.98362 0,19.52289c0,4.13167 -2.59978,6.34818 -5.90073,6.34818c-15.05248,0 -126.5863,0 -154.36854,0c-3.9953,0 -6.1593,-2.2423 -6.1593,-6.24682z" fill="#d9d9d9"/></g></g></svg>