<svg version="1.1" xmlns="http://www.w3.org/2000/svg" xmlns:xlink="http://www.w3.org/1999/xlink" width="39.375" height="39.375" viewBox="0,0,39.375,39.375"><g transform="translate(-300.3125,-160.3125)"><g data-paper-data="{&quot;isPaintingLayer&quot;:true}" fill-rule="nonzero" stroke="#000000" stroke-linecap="butt" stroke-linejoin="miter" stroke-miterlimit="10" stroke-dasharray="" stroke-dashoffset="0" style="mix-blend-mode: normal"><path d="M300.3125,197.92652c0,-6.89414 0,-31.86431 0,-35.77027c0,-1.00616 0.79709,-1.84375 1.76349,-1.84375c3.82147,0 28.67404,0 35.74022,0c1.1863,0 1.87129,0.8625 1.87129,1.89287c0,3.91709 0,28.49819 0,35.57692c0,1.20707 -0.80295,1.90521 -1.77514,1.90521c-3.81241,0 -28.42596,0 -35.625,0c-1.24991,0 -1.97486,-0.64268 -1.97486,-1.76098z" fill="#a9a9a9" stroke-width="0"/><path d="M303.41488,190.7353v-21.47059h33.17025v21.47059z" fill="#ffffff" stroke-width="2"/><path d="M303.41488,173.59417v-4.32946h33.17025v4.32946z" fill="#ffffff" stroke-width="2"/></g></g></svg>