<svg version="1.1" xmlns="http://www.w3.org/2000/svg" xmlns:xlink="http://www.w3.org/1999/xlink" width="86.75" height="39.375" viewBox="0,0,86.75,39.375"><g transform="translate(-300.3125,-160.3125)"><g data-paper-data="{&quot;isPaintingLayer&quot;:true}" fill="#ffffff" fill-rule="nonzero" stroke="#000000" stroke-width="0" stroke-linecap="butt" stroke-linejoin="miter" stroke-miterlimit="10" stroke-dasharray="" stroke-dashoffset="0" style="mix-blend-mode: normal"><path d="M300.31251,197.92653c0,-6.89414 0,-31.86431 0,-35.77027c0,-1.00616 0.79709,-1.84375 1.76349,-1.84375c3.82147,0 28.67404,0 35.74022,0c1.1863,0 1.87129,0.8625 1.87129,1.89287c0,3.91709 0,28.49819 0,35.57692c0,1.20707 -0.80295,1.90521 -1.77514,1.90521c-3.81241,0 -28.42596,0 -35.625,0c-1.24991,0 -1.97486,-0.64268 -1.97486,-1.76098z"/><path d="M324.93751,197.92653c0,-6.89414 0,-31.86431 0,-35.77027c0,-1.00616 0.79709,-1.84375 1.76349,-1.84375c3.82147,0 28.67404,0 35.74022,0c1.1863,0 1.87129,0.8625 1.87129,1.89287c0,3.91709 0,28.49819 0,35.57692c0,1.20707 -0.80295,1.90521 -1.77514,1.90521c-3.81241,0 -28.42596,0 -35.625,0c-1.24991,0 -1.97486,-0.64268 -1.97486,-1.76098z"/><path d="M347.68751,197.92653c0,-6.89414 0,-31.86431 0,-35.77027c0,-1.00616 0.79709,-1.84375 1.76349,-1.84375c3.82147,0 28.67404,0 35.74022,0c1.1863,0 1.87129,0.8625 1.87129,1.89287c0,3.91709 0,28.49819 0,35.57692c0,1.20707 -0.80295,1.90521 -1.77514,1.90521c-3.81241,0 -28.42596,0 -35.625,0c-1.24991,0 -1.97486,-0.64268 -1.97486,-1.76098z"/></g></g></svg>