<svg version="1.1" xmlns="http://www.w3.org/2000/svg" xmlns:xlink="http://www.w3.org/1999/xlink" width="70.9375" height="70.9375" viewBox="0,0,70.9375,70.9375"><defs><linearGradient x1="285.45621" y1="145.5218" x2="354.51453" y2="214.58012" gradientUnits="userSpaceOnUse" id="color-1"><stop offset="0" stop-color="#adf8ff"/><stop offset="1" stop-color="#66ccff"/></linearGradient></defs><g transform="translate(-284.53126,-144.53127)"><g data-paper-data="{&quot;isPaintingLayer&quot;:true}" fill-rule="nonzero" stroke-linejoin="miter" stroke-miterlimit="10" stroke-dasharray="" stroke-dashoffset="0" style="mix-blend-mode: normal"><path d="M284.53126,212.29621c0,-12.4204 0,-57.40634 0,-64.44326c0,-1.81269 1.43603,-3.32168 3.17708,-3.32168c6.88471,0 51.65879,0 64.38913,0c2.13722,0 3.37129,1.55387 3.37129,3.41017c0,7.05698 0,51.34198 0,64.09493c0,2.17464 -1.44658,3.4324 -3.19807,3.4324c-6.86839,0 -51.21185,0 -64.18155,0c-2.25182,0 -3.55788,-1.15784 -3.55788,-3.17256z" fill="url(#color-1)" stroke="#000000" stroke-width="0" stroke-linecap="butt"/><path d="M342.00044,157.96452c0,0 -0.19527,39.18315 -0.38637,42.13801c-0.18452,2.85308 -0.85685,6.11077 -6.24068,6.29597c-0.57872,0.01991 -16.46325,0.16605 -30.89131,0.04765c-4.80013,-0.10431 -5.87049,-2.54294 -6.30783,-5.90126c-0.12429,-2.84368 -0.17466,-46.74553 -0.17466,-46.74553l37.895,-0.2913l-0.23163,46.60596" fill="none" stroke="#ffffff" stroke-width="2" stroke-linecap="round"/><path d="M303.64489,160.3358h26.64049" fill="none" stroke="#ffffff" stroke-width="2" stroke-linecap="round"/><path d="M303.74007,165.98971h26.64049" fill="none" stroke="#ffffff" stroke-width="2" stroke-linecap="round"/><path d="M303.64489,172.02697h10.24878" fill="none" stroke="#ffffff" stroke-width="2" stroke-linecap="round"/><path d="M313.93028,177.45126h-10.24878" fill="none" stroke="#ffffff" stroke-width="2" stroke-linecap="round"/><path d="M303.6815,182.72184h10.24878" fill="none" stroke="#ffffff" stroke-width="2" stroke-linecap="round"/><path d="M303.74007,188.3179h26.64049" fill="none" stroke="#ffffff" stroke-width="2" stroke-linecap="round"/><path d="M303.74007,193.97183h26.64049" fill="none" stroke="#ffffff" stroke-width="2" stroke-linecap="round"/><path d="M303.74007,199.72156h26.64049" fill="none" stroke="#ffffff" stroke-width="2" stroke-linecap="round"/><path d="M319.99999,182.75982v-10.73285h10.28539v10.73285z" fill="#ffffff" stroke="#ffffff" stroke-width="2" stroke-linecap="butt"/></g></g></svg>