<svg version="1.1" xmlns="http://www.w3.org/2000/svg" xmlns:xlink="http://www.w3.org/1999/xlink" width="129.4178" height="47.83333" viewBox="0,0,129.4178,47.83333"><g transform="translate(-296.08333,-156.08336)"><g data-paper-data="{&quot;isPaintingLayer&quot;:true}" fill="#ffffff" fill-rule="nonzero" stroke="none" stroke-width="0" stroke-linecap="butt" stroke-linejoin="miter" stroke-miterlimit="10" stroke-dasharray="" stroke-dashoffset="0" style="mix-blend-mode: normal"><path d="M296.08333,197.6667c0,-10.45122 0,-30.86522 0,-36.2963c0,-2.60603 2.66645,-5.28704 5.26191,-5.28704c5.55115,0 26.82448,0 37.03704,0c3.36907,0 5.53439,2.73473 5.53439,5.37963c0,5.50356 0,26.14665 0,36.48148c0,3.61765 -2.87903,5.97222 -5.62698,5.97222c-5.59264,0 -26.18052,0 -36.38889,0c-3.5289,0 -5.81746,-2.47514 -5.81746,-6.25z"/><path d="M333.2043,197.6667c0,-10.45122 0,-30.86522 0,-36.2963c0,-2.60603 2.66645,-5.28704 5.26191,-5.28704c5.55115,0 26.82448,0 37.03704,0c3.36907,0 5.53439,2.73473 5.53439,5.37963c0,5.50356 0,26.14665 0,36.48148c0,3.61765 -2.87903,5.97222 -5.62698,5.97222c-5.59264,0 -26.18052,0 -36.38889,0c-3.5289,0 -5.81746,-2.47514 -5.81746,-6.25z"/><path d="M365.05749,197.6667c0,-10.45122 0,-30.86522 0,-36.2963c0,-2.60603 2.66645,-5.28704 5.26191,-5.28704c5.55115,0 26.82448,0 37.03704,0c3.36907,0 5.53439,2.73473 5.53439,5.37963c0,5.50356 0,26.14665 0,36.48148c0,3.61765 -2.87903,5.97222 -5.62698,5.97222c-5.59264,0 -26.18052,0 -36.38889,0c-3.5289,0 -5.81746,-2.47514 -5.81746,-6.25z"/><path d="M377.6678,197.6667c0,-10.45122 0,-30.86522 0,-36.2963c0,-2.60603 2.66645,-5.28704 5.26191,-5.28704c5.55115,0 26.82448,0 37.03704,0c3.36907,0 5.53439,2.73473 5.53439,5.37963c0,5.50356 0,26.14665 0,36.48148c0,3.61765 -2.87903,5.97222 -5.62698,5.97222c-5.59264,0 -26.18052,0 -36.38889,0c-3.5289,0 -5.81746,-2.47514 -5.81746,-6.25z"/></g></g></svg>