<svg version="1.1" xmlns="http://www.w3.org/2000/svg" xmlns:xlink="http://www.w3.org/1999/xlink" width="41.6102" height="41.60453" viewBox="0,0,41.6102,41.60453"><defs><linearGradient x1="319.99422" y1="160.18808" x2="319.99422" y2="199.79266" gradientUnits="userSpaceOnUse" id="color-1"><stop offset="0" stop-color="#000000"/><stop offset="1" stop-color="#57add9"/></linearGradient><linearGradient x1="307.03968" y1="168.39464" x2="307.03968" y2="191.57646" gradientUnits="userSpaceOnUse" id="color-2"><stop offset="0" stop-color="#66ccff"/><stop offset="1" stop-color="#52a3cc"/></linearGradient><linearGradient x1="314.76695" y1="168.39464" x2="314.76695" y2="191.57646" gradientUnits="userSpaceOnUse" id="color-3"><stop offset="0" stop-color="#66ccff"/><stop offset="1" stop-color="#52a3cc"/></linearGradient><linearGradient x1="322.49422" y1="168.40428" x2="322.49422" y2="191.58609" gradientUnits="userSpaceOnUse" id="color-4"><stop offset="0" stop-color="#66ccff"/><stop offset="1" stop-color="#52a3cc"/></linearGradient><linearGradient x1="331.35786" y1="176.927" x2="331.35786" y2="191.58609" gradientUnits="userSpaceOnUse" id="color-5"><stop offset="0" stop-color="#66ccff"/><stop offset="1" stop-color="#52a3cc"/></linearGradient></defs><g transform="translate(-299.18589,-159.18813)"><g data-paper-data="{&quot;isPaintingLayer&quot;:true}" fill-rule="nonzero" stroke-linejoin="miter" stroke-miterlimit="10" stroke-dasharray="" stroke-dashoffset="0" style="mix-blend-mode: normal"><path d="M300.19234,197.79002c0.04431,-6.894 0.20479,-31.86365 0.2299,-35.76953c0.00647,-1.00614 0.80892,-1.83859 1.7753,-1.83238c3.82139,0.02456 28.67345,0.18429 35.73948,0.2297c1.18628,0.00762 1.86571,0.87451 1.85909,1.90486c-0.02518,3.91701 -0.18316,28.4976 -0.22865,35.57619c-0.00776,1.20705 -0.81518,1.90001 -1.78735,1.89376c-3.81233,-0.0245 -28.42537,-0.18269 -35.62426,-0.22896c-1.24988,-0.00803 -1.97069,-0.65536 -1.9635,-1.77364z" fill="#ffffff" stroke="url(#color-1)" stroke-width="2" stroke-linecap="butt"/><path d="M307.03968,168.39464v23.18182" fill="#66ccff" stroke="url(#color-2)" stroke-width="6" stroke-linecap="round"/><path d="M314.76695,168.39464v23.18182" fill="#66ccff" stroke="url(#color-3)" stroke-width="6" stroke-linecap="round"/><path d="M322.49422,168.40428v23.18182" fill="#66ccff" stroke="url(#color-4)" stroke-width="6" stroke-linecap="round"/><path d="M332.94877,191.58609l-3.18182,-14.65909" fill="#66ccff" stroke="url(#color-5)" stroke-width="6" stroke-linecap="round"/></g></g></svg>