<svg version="1.1" xmlns="http://www.w3.org/2000/svg" xmlns:xlink="http://www.w3.org/1999/xlink" width="116.22159" height="35.56442" viewBox="0,0,116.22159,35.56442"><defs><linearGradient x1="23.38183" y1="252.50516" x2="23.38183" y2="268.37205" gradientUnits="userSpaceOnUse" id="color-1"><stop offset="0" stop-color="#00aaff"/><stop offset="1" stop-color="#adfffb"/></linearGradient></defs><g transform="translate(-4.42816,-242.97545)"><g data-paper-data="{&quot;isPaintingLayer&quot;:true}" fill-rule="nonzero" stroke-linejoin="miter" stroke-miterlimit="10" stroke-dasharray="" stroke-dashoffset="0" style="mix-blend-mode: normal"><g><path d="M4.42816,272.66577c0,-7.50699 0,-20.02384 0,-24.13795c0,-2.58829 2.76421,-5.55237 6.0146,-5.55237c11.86681,0 83.65947,0 104.52456,0c3.5987,0 5.68243,3.11395 5.68243,5.79432c0,4.06259 0,16.00326 0,23.46964c0,3.69945 -2.59431,6.30046 -5.68243,6.30046c-11.60699,0 -83.70739,0 -104.76853,0c-3.65308,0 -5.77063,-2.40084 -5.77063,-5.8741z" fill-opacity="0.12549" fill="#a6a6a6" stroke="#000000" stroke-width="0" stroke-linecap="butt"/><path d="M15.44838,260.43861c0,-4.38153 3.55192,-7.93345 7.93344,-7.93345c4.38153,0 7.93345,3.55192 7.93345,7.93345c0,4.38153 -3.55193,7.93345 -7.93345,7.93345c-4.38152,0 -7.93344,-3.55192 -7.93344,-7.93345z" fill="url(#color-1)" stroke="none" stroke-width="0" stroke-linecap="butt"/><path d="M29.56833,257.23908c0,0 -4.19314,0.93972 -6.29804,0.93972c-2.01556,0 -6.07496,-0.93972 -6.07496,-0.93972" fill="none" stroke="#ffffff" stroke-width="1" stroke-linecap="round"/><path d="M29.54507,262.17438c0,0 -4.01358,1.25296 -6.10227,1.25296c-2.01767,0 -6.2242,-1.25296 -6.2242,-1.25296" fill="none" stroke="#ffffff" stroke-width="1" stroke-linecap="round"/><path d="M21.15794,266.41195c0,0 -1.01803,-3.94746 -1.01803,-5.7215c0,-1.87909 0.86141,-6.19576 0.86141,-6.19576" fill="none" stroke="#ffffff" stroke-width="1" stroke-linecap="round"/><path d="M25.20828,254.44082c0,0 1.29212,4.02923 1.29212,6.01471c0,1.58053 -1.44874,5.98086 -1.44874,5.98086" fill="none" stroke="#ffffff" stroke-width="1" stroke-linecap="round"/><path d="M12.01805,264.57196c0,-3.40386 2.75938,-6.16323 6.16324,-6.16323c3.40386,0 6.16324,2.75937 6.16324,6.16323c0,3.40386 -2.75938,6.16324 -6.16323,6.16324c-3.40386,0 -6.16324,-2.75938 -6.16324,-6.16324z" fill="#b3b3b3" stroke="#000000" stroke-width="0" stroke-linecap="butt"/><path d="M20.80718,267.39634l-2.6259,-2.6259v-3.02284" fill="none" stroke="#ffffff" stroke-width="0.75" stroke-linecap="round"/><path d="M18.18128,259.65166v-0.91602" fill="none" stroke="#ffffff" stroke-width="0.75" stroke-linecap="round"/><path d="M18.18128,270.36899v-0.91601" fill="none" stroke="#ffffff" stroke-width="0.75" stroke-linecap="round"/><path d="M12.34075,264.57196h0.85495" fill="none" stroke="#ffffff" stroke-width="0.75" stroke-linecap="round"/><path d="M23.11917,264.57196h0.85494" fill="none" stroke="#ffffff" stroke-width="0.75" stroke-linecap="round"/><text transform="translate(38.40856,264.37722) scale(0.30163,0.30163)" font-size="40" xml:space="preserve" fill="#000000" fill-rule="nonzero" stroke="none" stroke-width="1" stroke-linecap="butt" stroke-linejoin="miter" stroke-miterlimit="10" stroke-dasharray="" stroke-dashoffset="0" font-family="Sans Serif" font-weight="normal" text-anchor="start" style="mix-blend-mode: normal"><tspan x="0" dy="0">时间和语言</tspan></text></g></g></g></svg>