<svg version="1.1" xmlns="http://www.w3.org/2000/svg" xmlns:xlink="http://www.w3.org/1999/xlink" width="112.624" height="112.624" viewBox="0,0,112.624,112.624"><g transform="translate(-263.68561,-123.68561)"><g data-paper-data="{&quot;isPaintingLayer&quot;:true}" fill="none" fill-rule="nonzero" stroke="#000000" stroke-width="6" stroke-linecap="round" stroke-linejoin="round" stroke-miterlimit="10" stroke-dasharray="" stroke-dashoffset="0" style="mix-blend-mode: normal"><path d="M343.56028,139.37894c8.03733,0 12.064,-0.00533 14.56,2.496c2.496,2.50133 2.496,6.52267 2.496,14.56v0.58667c0,3.152 0,4.72533 0.53333,6.16533l0.24533,0.58667c0.64,1.392 1.74933,2.50667 3.97867,4.736c5.13067,5.13067 7.696,7.696 7.936,10.848c0.032,0.42667 0.032,0.85333 0,1.28c-0.24,3.152 -2.80533,5.71733 -7.936,10.848c-2.22933,2.22933 -3.33867,3.344 -3.97867,4.736c-0.08889,0.192 -0.17067,0.38933 -0.24533,0.592c-0.53333,1.43467 -0.53333,3.01333 -0.53333,6.16v0.58667c0,8.03733 0.00533,12.064 -2.496,14.56c-2.50133,2.496 -6.52267,2.496 -14.56,2.496h-0.58667c-3.152,0 -4.72533,0 -6.16533,0.53333c-0.19911,0.07467 -0.39467,0.15644 -0.58667,0.24533c-1.392,0.64 -2.50667,1.74933 -4.736,3.97867c-5.13067,5.13067 -7.696,7.696 -10.848,7.936c-0.42667,0.032 -0.85333,0.032 -1.28,0c-3.152,-0.24 -5.71733,-2.80533 -10.848,-7.936c-2.22933,-2.22933 -3.344,-3.33867 -4.736,-3.97867c-0.192,-0.08889 -0.38933,-0.17067 -0.592,-0.24533c-1.43467,-0.53333 -3.01333,-0.53333 -6.16,-0.53333h-0.58667c-8.03733,0 -12.064,0.00533 -14.56,-2.496c-2.496,-2.50133 -2.496,-6.52267 -2.496,-14.56v-0.58667c0,-3.152 0,-4.72533 -0.53333,-6.16533c-0.07467,-0.19911 -0.15644,-0.39467 -0.24533,-0.58667c-0.63467,-1.392 -1.74933,-2.50667 -3.97867,-4.736c-5.13067,-5.13067 -7.696,-7.696 -7.936,-10.848c-0.02562,-0.42628 -0.02562,-0.85372 0,-1.28c0.24,-3.152 2.80533,-5.71733 7.936,-10.848c2.22933,-2.22933 3.33867,-3.344 3.97867,-4.736c0.08533,-0.192 0.16711,-0.38933 0.24533,-0.592c0.53333,-1.43467 0.53333,-3.01333 0.53333,-6.16v-0.58667c0,-8.03733 -0.00533,-12.064 2.496,-14.56c2.50133,-2.496 6.52267,-2.496 14.56,-2.496h0.58667c3.152,0 4.72533,0 6.16533,-0.53333l0.58667,-0.24533c1.392,-0.63467 2.50667,-1.74933 4.736,-3.97867c5.13067,-5.13067 7.696,-7.696 10.848,-7.936c0.42628,-0.02562 0.85372,-0.02562 1.28,0c3.152,0.24 5.71733,2.80533 10.848,7.936c2.22933,2.22933 3.344,3.33867 4.736,3.97867l0.592,0.24533c1.43467,0.53333 3.01333,0.53333 6.16,0.53333z"/><path d="M334.95228,187.99761l-14.95467,-8v-21.33333"/></g></g></svg>