<svg version="1.1" xmlns="http://www.w3.org/2000/svg" xmlns:xlink="http://www.w3.org/1999/xlink" width="39.37501" height="39.37499" viewBox="0,0,39.37501,39.37499"><defs><linearGradient x1="300.82593" y1="160.8623" x2="339.15785" y2="199.19423" gradientUnits="userSpaceOnUse" id="color-1"><stop offset="0" stop-color="#adf8ff"/><stop offset="1" stop-color="#66ccff"/></linearGradient></defs><g transform="translate(-300.3125,-160.3125)"><g data-paper-data="{&quot;isPaintingLayer&quot;:true}" stroke-linecap="butt" stroke-linejoin="miter" stroke-miterlimit="10" stroke-dasharray="" stroke-dashoffset="0" style="mix-blend-mode: normal"><path d="M300.31251,197.92652c0,-6.89414 0,-31.86431 0,-35.77027c0,-1.00616 0.79709,-1.84375 1.76349,-1.84375c3.82147,0 28.67404,0 35.74022,0c1.1863,0 1.87129,0.8625 1.87129,1.89287c0,3.91709 0,28.49819 0,35.57692c0,1.20707 -0.80295,1.90521 -1.77514,1.90521c-3.81241,0 -28.42596,0 -35.625,0c-1.24991,0 -1.97486,-0.64268 -1.97486,-1.76098z" fill="url(#color-1)" fill-rule="nonzero" stroke="#000000" stroke-width="0"/><path d="M320.64546,173.01631c-4.35505,0 -7.88553,3.5258 -7.88553,7.87461c0,4.34881 3.53048,7.87422 7.88553,7.87422c4.35505,0 7.88553,-3.52541 7.88553,-7.87422c0,-4.34881 -3.53048,-7.87461 -7.88553,-7.87461zM321.0439,164.92445c1.16369,0.67101 11.11749,6.41188 13.2076,7.61772c0.32116,0.19356 0.38556,0.43238 0.38633,0.67707c0.02537,5.109 0.05073,10.2176 0.07571,15.32659c0.00078,0.13814 -0.11161,0.48155 -0.35902,0.6197c-1.1473,0.64077 -11.2131,6.38819 -13.33365,7.5991c-0.25171,0.1436 -0.56546,0.11356 -0.79492,-0.01873c-1.33032,-0.76682 -13.57052,-7.81412 -13.57052,-7.81412c-0.02614,-5.25455 -0.0519,-10.5095 -0.07804,-15.76405c0.00507,-0.34653 0.13346,-0.48 0.3797,-0.64935c1.17501,-0.66965 11.30988,-6.44591 13.34809,-7.6076c0.22946,-0.13073 0.52019,-0.11212 0.73872,0.0137z" fill="#000000" fill-rule="evenodd" stroke="none" stroke-width="1"/><path d="M320.00157,172.15778c-4.36091,0 -7.89646,3.5258 -7.89646,7.87461c0,4.34881 3.53555,7.87422 7.89646,7.87422c4.3613,0 7.89646,-3.52541 7.89646,-7.87422c0,-4.34881 -3.53516,-7.87461 -7.89646,-7.87461zM320.4004,164.06592c1.16564,0.67101 11.13271,6.41208 13.22633,7.61772c0.32155,0.19356 0.38594,0.43238 0.38672,0.67707c0.02537,5.109 0.05073,10.2176 0.07571,15.32659c0.00078,0.13814 -0.11161,0.48155 -0.35941,0.6197c-1.14886,0.64077 -11.22871,6.38819 -13.35238,7.5991c-0.25171,0.1436 -0.56585,0.11356 -0.7957,-0.01873c-1.33227,-0.76682 -13.58964,-7.81412 -13.58964,-7.81412c-0.02614,-5.25455 -0.0519,-10.5095 -0.07804,-15.76405c0.00507,-0.34653 0.13385,-0.48 0.38048,-0.64935c1.17618,-0.66965 11.32548,-6.44591 13.36642,-7.6076c0.22946,-0.13073 0.52097,-0.11212 0.7395,0.0137z" fill="#ffffff" fill-rule="evenodd" stroke="none" stroke-width="1"/></g></g></svg>