<svg version="1.1" xmlns="http://www.w3.org/2000/svg" xmlns:xlink="http://www.w3.org/1999/xlink" width="60" height="56" viewBox="0,0,60,56"><g transform="translate(-290,-152)"><g data-paper-data="{&quot;isPaintingLayer&quot;:true}" fill="#000000" fill-rule="nonzero" stroke="none" stroke-width="1" stroke-linecap="butt" stroke-linejoin="miter" stroke-miterlimit="10" stroke-dasharray="" stroke-dashoffset="0" style="mix-blend-mode: normal"><path d="M322,200v4h8v4h-20v-4h8v-4h-28v-36h32l-4.03125,4h-23.96875v28h52v-24l4,-4v32zM306,188c0.5625,0 1.08333,-0.10417 1.5625,-0.3125c0.47917,-0.20833 0.89583,-0.48958 1.25,-0.84375c0.35417,-0.35417 0.64583,-0.78125 0.875,-1.28125c0.22917,-0.5 0.33333,-1.02083 0.3125,-1.5625c0,-1.02083 0.17708,-1.98958 0.53125,-2.90625c0.35417,-0.91667 0.85417,-1.72917 1.5,-2.4375c0.64583,-0.70833 1.39583,-1.29167 2.25,-1.75c0.85417,-0.45833 1.80208,-0.75 2.84375,-0.875l22.21875,-22.21875c0.58333,-0.58333 1.26042,-1.03125 2.03125,-1.34375c0.77083,-0.3125 1.5625,-0.46875 2.375,-0.46875c0.85417,0 1.65625,0.15625 2.40625,0.46875c0.75,0.3125 1.41667,0.76042 2,1.34375c0.58333,0.58333 1.02083,1.23958 1.3125,1.96875c0.29167,0.72917 0.45833,1.55208 0.5,2.46875c0,0.8125 -0.15625,1.60417 -0.46875,2.375c-0.3125,0.77083 -0.76042,1.44792 -1.34375,2.03125l-22.21875,22.21875c-0.10417,1 -0.38542,1.9375 -0.84375,2.8125c-0.45833,0.875 -1.04167,1.625 -1.75,2.25c-0.70833,0.625 -1.52083,1.125 -2.4375,1.5c-0.91667,0.375 -1.88542,0.5625 -2.90625,0.5625h-20v-4zM343.75,156c-0.60417,0 -1.125,0.21875 -1.5625,0.65625l-13.90625,13.90625c1.1875,0.91667 2.23958,1.96875 3.15625,3.15625l13.90625,-13.90625c0.4375,-0.4375 0.65625,-0.95833 0.65625,-1.5625c0,-0.625 -0.21875,-1.15625 -0.65625,-1.59375c-0.4375,-0.4375 -0.96875,-0.65625 -1.59375,-0.65625M322.5625,176.28125c1.27083,0.83333 2.32292,1.88542 3.15625,3.15625l2.875,-2.84375c-0.875,-1.25 -1.9375,-2.3125 -3.1875,-3.1875zM322,184c0,-0.5625 -0.10417,-1.08333 -0.3125,-1.5625c-0.20833,-0.47917 -0.48958,-0.89583 -0.84375,-1.25c-0.35417,-0.35417 -0.78125,-0.64583 -1.28125,-0.875c-0.5,-0.22917 -1.02083,-0.33333 -1.5625,-0.3125c-0.5625,0 -1.08333,0.10417 -1.5625,0.3125c-0.47917,0.20833 -0.89583,0.48958 -1.25,0.84375c-0.35417,0.35417 -0.64583,0.78125 -0.875,1.28125c-0.22917,0.5 -0.33333,1.02083 -0.3125,1.5625c0,1.41667 -0.35417,2.75 -1.0625,4h5.0625c0.54167,0 1.05208,-0.10417 1.53125,-0.3125c0.47917,-0.20833 0.90625,-0.48958 1.28125,-0.84375c0.375,-0.35417 0.66667,-0.78125 0.875,-1.28125c0.20833,-0.5 0.3125,-1.02083 0.3125,-1.5625"/></g></g></svg>