<svg version="1.1" xmlns="http://www.w3.org/2000/svg" xmlns:xlink="http://www.w3.org/1999/xlink" width="50.01771" height="14.28571" viewBox="0,0,50.01771,14.28571"><g transform="translate(-585.1937,0)"><g data-paper-data="{&quot;isPaintingLayer&quot;:true}" fill-rule="nonzero" stroke-linejoin="miter" stroke-miterlimit="10" stroke-dasharray="" stroke-dashoffset="0" style="mix-blend-mode: normal"><path d="M585.1937,14.28571v-14.28571h50.01771v14.28571z" fill-opacity="0.01176" fill="#404040" stroke="#000000" stroke-width="0" stroke-linecap="butt"/><path d="M592.34372,9.91668c0,-0.7025 0.56949,-1.27198 1.27199,-1.27198c0.7025,0 1.27199,0.56948 1.27199,1.27198c0,0.7025 -0.56949,1.27199 -1.27199,1.27199c-0.7025,0 -1.27199,-0.56949 -1.27199,-1.27199z" fill="#ffffff" stroke="#000000" stroke-width="0" stroke-linecap="butt"/><path d="M590.91238,8.67583c0,0 0.58701,-1.94584 2.66207,-1.89887c2.19637,0.03486 2.67214,1.89887 2.67214,1.89887" fill="none" stroke="#ffffff" stroke-width="0.5" stroke-linecap="round"/><path d="M589.2749,7.50599c0,0 0.94741,-2.60575 4.29646,-2.54286c3.54485,0.04669 4.31269,2.54286 4.31269,2.54286" fill="none" stroke="#ffffff" stroke-width="0.5" stroke-linecap="round"/><path d="M587.70989,6.50569c0,0 1.27956,-3.4914 5.80279,-3.40714c4.78766,0.06255 5.82474,3.40714 5.82474,3.40714" fill="none" stroke="#ffffff" stroke-width="0.5" stroke-linecap="round"/><path d="M610.20255,3.09705v8.09164l-4.04581,-4.04581z" fill="#ffffff" stroke="#ffffff" stroke-width="0.5" stroke-linecap="butt"/><path d="M604.635,9.16578v-4.04582l2.02291,2.02291z" fill="#ffffff" stroke="#ffffff" stroke-width="0.5" stroke-linecap="butt"/><path d="M611.308,5.80536c0,0 1.03402,0.30067 1.00906,1.36353c-0.01852,1.125 -1.00906,1.36868 -1.00906,1.36868" fill="none" stroke="#ffffff" stroke-width="0.5" stroke-linecap="round"/><path d="M611.92965,4.96662c0,0 1.38469,0.48527 1.35127,2.20067c-0.02481,1.81569 -1.35127,2.20898 -1.35127,2.20898" fill="none" stroke="#ffffff" stroke-width="0.5" stroke-linecap="round"/><path d="M612.46121,4.16503c0,0 1.85533,0.6554 1.81056,2.97222c-0.03324,2.45227 -1.81056,2.98346 -1.81056,2.98346" fill="none" stroke="#ffffff" stroke-width="0.5" stroke-linecap="round"/><path d="M619.41185,10.37558v-6.46545h11.81799v6.46545z" fill="none" stroke="#ffffff" stroke-width="0.5" stroke-linecap="butt"/><path d="M631.39578,8.53654v-2.78735h0.86819v2.78735z" fill="#ffffff" stroke="#ffffff" stroke-width="0.5" stroke-linecap="butt"/><path d="M620.13348,9.62422v-4.9627h10.37473v4.9627z" fill="#ffffff" stroke="#ffffff" stroke-width="0.5" stroke-linecap="butt"/></g></g></svg>