<svg version="1.1" xmlns="http://www.w3.org/2000/svg" xmlns:xlink="http://www.w3.org/1999/xlink" width="43.46215" height="43.42053" viewBox="0,0,43.46215,43.42053"><g transform="translate(-298.45643,-158.52084)"><g data-paper-data="{&quot;isPaintingLayer&quot;:true}" fill-rule="evenodd" stroke-linecap="butt" stroke-linejoin="miter" stroke-dasharray="" stroke-dashoffset="0" style="mix-blend-mode: normal"><path d="M298.45643,165.87926c0,-4.06393 3.29444,-7.35842 7.3585,-7.35842h28.61631c4.06405,0 7.3585,3.29449 7.3585,7.35842v28.6164c0,4.06405 -3.29444,7.35851 -7.3585,7.35851h-28.61631c-4.06405,0 -7.3585,-3.29445 -7.3585,-7.35851z" fill="#ffffff" stroke="#000000" stroke-width="0" stroke-miterlimit="8"/><path d="M326.09953,169.38638c4.76448,0 9.47202,0.24205 14.11189,0.71463l1.57831,0.201v24.1958c0,4.06277 -3.28465,7.35636 -7.33662,7.35636h-28.53122c-4.05197,0 -7.33662,-3.29359 -7.33662,-7.35636v-22.35381l6.4948,-1.163c6.85363,-1.05005 13.87339,-1.59461 21.01947,-1.59461z" fill="#000000" stroke="#000000" stroke-width="0" stroke-miterlimit="8"/><path d="M320.25192,169.4736c6.48798,0 12.82219,0.65708 18.94039,1.90855l2.72627,0.62917v22.57369c0,4.06277 -3.29444,7.35636 -7.3585,7.35636h-28.61631c-4.06405,0 -7.3585,-3.29359 -7.3585,-7.35636v-22.57369l2.72626,-0.62917c6.1182,-1.25147 12.45242,-1.90855 18.9404,-1.90855z" fill="#ffffff" stroke="#000000" stroke-width="0" stroke-miterlimit="8"/><path d="M320.16471,187.72467l1.07367,14.12949h-2.14733z" fill="#000000" stroke="#000000" stroke-width="0" stroke-miterlimit="8"/><path d="M311.00725,174.60004h5.26121l-0.01311,0.01311h1.82368v11.17494h-4.60518v-7.52861h-2.4666zM319.54305,174.58693h6.80943c0.94463,0 1.66186,0.24468 2.15169,0.73443c0.48983,0.48975 0.73474,1.20671 0.73474,2.15126v1.41642c0,0.94415 -0.24491,1.66151 -0.73474,2.15086c-0.48983,0.48975 -1.20706,0.73483 -2.15169,0.73483h-3.03079v0.55053h5.48424v3.46283h-9.3416v-4.32833c0,-0.94415 0.24491,-1.66151 0.73474,-2.15086c0.48983,-0.48975 1.20706,-0.73482 2.15174,-0.73482h3.03074v-0.52431h-5.8385z" fill="#000000" stroke="none" stroke-width="1" stroke-miterlimit="10"/></g></g></svg>