<svg version="1.1" xmlns="http://www.w3.org/2000/svg" xmlns:xlink="http://www.w3.org/1999/xlink" width="948" height="606" viewBox="0,0,948,606"><g transform="translate(154,123)"><g data-paper-data="{&quot;isPaintingLayer&quot;:true}" fill-rule="nonzero" stroke-linejoin="miter" stroke-miterlimit="10" stroke-dasharray="" stroke-dashoffset="0" style="mix-blend-mode: normal"><path d="M-154,483v-606h948v606z" fill="#000000" stroke="#ff0000" stroke-width="0" stroke-linecap="butt"/><path d="M410.74539,196.45114c0,0 11.79535,20.85265 31.02244,21.28023c18.85089,0.41921 32.88053,-7.06461 39.27053,-23.89221c3.13652,-8.25982 -17.53402,-19.8906 -36.19192,-12.64202c-17.93189,6.96653 -38.42092,-1.05537 -36.62691,-10.41537c3.19999,-16.6955 22.64767,-28.63604 34.66422,-28.52908c32.21215,0.28673 38.34638,24.60719 38.34638,24.60719" fill="none" stroke="#66ccff" stroke-width="12" stroke-linecap="round"/><path d="M369.23676,180c0,-20.84766 16.90037,-37.74802 37.74802,-37.74802c20.84766,0 37.74802,16.90037 37.74802,37.74802c0,20.84766 -16.90037,37.74802 -37.74802,37.74802c-20.84766,0 -37.74802,-16.90037 -37.74802,-37.74802z" fill="none" stroke="#66ccff" stroke-width="12" stroke-linecap="butt"/><path d="M218.31947,197.39149c0,-10.61649 8.60636,-19.22284 19.22285,-19.22284c10.61649,0 19.22285,8.60635 19.22285,19.22284c0,10.61649 -8.60636,19.22285 -19.22285,19.22285c-10.61649,0 -19.22285,-8.60636 -19.22285,-19.22285z" fill="none" stroke="#ffffff" stroke-width="8" stroke-linecap="butt"/><path d="M267.61997,197.39149c0,-10.61649 8.60636,-19.22284 19.22285,-19.22284c10.61649,0 19.22285,8.60635 19.22285,19.22284c0,10.61649 -8.60636,19.22285 -19.22285,19.22285c-10.61649,0 -19.22285,-8.60636 -19.22285,-19.22285z" fill="none" stroke="#ffffff" stroke-width="8" stroke-linecap="butt"/><g fill="none" stroke="#ffffff" stroke-width="8"><path d="M158.64391,169.73089c0,-15.17618 12.30272,-27.4789 27.4789,-27.4789c15.17618,0 27.47891,12.30273 27.47891,27.4789c0,15.17618 -12.30273,27.47891 -27.47891,27.47891c-15.17618,0 -27.4789,-12.30273 -27.4789,-27.47891z" stroke-linecap="butt"/><path d="M158.64391,169.99135v46.62298" stroke-linecap="round"/><path d="M203.39121,216.61433l-9.32426,-19.40453" stroke-linecap="round"/></g><path d="M158.64391,169.73089c0,-15.17618 12.30272,-27.4789 27.4789,-27.4789c15.17618,0 27.47891,12.30273 27.47891,27.4789c0,15.17618 -12.30273,27.47891 -27.47891,27.47891c-15.17618,0 -27.4789,-12.30273 -27.4789,-27.47891z" fill="none" stroke="#ffffff" stroke-width="8" stroke-linecap="butt"/><path d="M158.64391,169.99135v46.62298" fill="none" stroke="#ffffff" stroke-width="8" stroke-linecap="round"/><path d="M203.39121,216.61433l-9.32426,-19.40453" fill="none" stroke="#ffffff" stroke-width="8" stroke-linecap="round"/><path d="M256.76516,178.16865v38.44568" fill="none" stroke="#ffffff" stroke-width="8" stroke-linecap="round"/><path d="M318.5677,178.16865v38.44568" fill="#ffffff" stroke="#ffffff" stroke-width="8" stroke-linecap="round"/><path d="M356.07382,207.65061c0,0 -0.32261,10.45228 -13.66814,10.08812c-11.69612,-0.31915 -12.98716,-10.19546 -12.98716,-10.19546v-29.37462" fill="none" stroke="#ffffff" stroke-width="8" stroke-linecap="round"/><path d="M366.92464,188.26606c0,0 0.32261,-10.45228 13.66814,-10.08812c11.69612,0.31915 12.98715,10.19546 12.98715,10.19546v29.37462" fill="none" stroke="#ffffff" stroke-width="8" stroke-linecap="round"/><path d="M393.57992,188.26606c0,0 0.32261,-10.45228 13.66814,-10.08812c11.69612,0.31915 12.98716,10.19546 12.98716,10.19546v29.37462" fill="none" stroke="#ffffff" stroke-width="8" stroke-linecap="round"/><path d="M356.0738,216.61433v-38.44568" fill="none" stroke="#ffffff" stroke-width="8" stroke-linecap="round"/><path d="M366.92464,217.74802v-38.44568" fill="none" stroke="#ffffff" stroke-width="8" stroke-linecap="round"/><path d="M306.30154,216.61433v-74.36235" fill="none" stroke="#ffffff" stroke-width="8" stroke-linecap="round"/><path d="M314.5677,168.02548c0,-2.20914 1.79086,-4 4,-4c2.20914,0 4,1.79086 4,4c0,2.20914 -1.79086,4 -4,4c-2.20914,0 -4,-1.79086 -4,-4z" fill="#ffffff" stroke="none" stroke-width="0.5" stroke-linecap="butt"/></g></g></svg>