<svg version="1.1" xmlns="http://www.w3.org/2000/svg" xmlns:xlink="http://www.w3.org/1999/xlink" width="39.375" height="39.375" viewBox="0,0,39.375,39.375"><g transform="translate(-300.3125,-160.3125)"><g data-paper-data="{&quot;isPaintingLayer&quot;:true}" stroke="#000000" stroke-width="0" stroke-linecap="butt" stroke-linejoin="miter" stroke-dasharray="" stroke-dashoffset="0" style="mix-blend-mode: normal"><path d="M300.3125,197.92652c0,-6.89414 0,-31.86431 0,-35.77027c0,-1.00616 0.79709,-1.84375 1.76349,-1.84375c3.82147,0 28.67404,0 35.74022,0c1.1863,0 1.87129,0.8625 1.87129,1.89287c0,3.91709 0,28.49819 0,35.57692c0,1.20707 -0.80295,1.90521 -1.77514,1.90521c-3.81241,0 -28.42596,0 -35.625,0c-1.24991,0 -1.97486,-0.64268 -1.97486,-1.76098z" fill="#ffffff" fill-rule="nonzero" stroke-miterlimit="10"/><path d="M300.3125,197.92652c0,-3.83972 0,-21.57854 0,-21.57854l6.48134,-5.84985l28.27218,16.47872l-3.91221,12.71065c0,0 -23.58631,0 -28.86644,0c-1.24991,0 -1.97486,-0.64268 -1.97486,-1.76098z" fill="#000000" fill-rule="nonzero" stroke-miterlimit="10"/><path d="M305.04628,174.56613c0,-3.05947 2.47996,-5.53942 5.53943,-5.53942h19.12556c3.05947,0 5.53943,2.47996 5.53943,5.53942v11.24275c0,3.05947 -2.47996,5.53942 -5.53943,5.53942h-19.12556c-3.05947,0 -5.53943,-2.47996 -5.53943,-5.53942z" fill="#00ffff" fill-rule="evenodd" stroke-miterlimit="8"/><path d="M310.27504,191.34832v-22.32159h19.49587v22.32159z" fill="#ffffff" fill-rule="nonzero" stroke-miterlimit="8"/><path d="M310.526,169.02671l9.64199,6.24849l9.642,-6.24849l1.04818,0.10568c1.8029,0.369 3.28698,1.6141 3.98746,3.27105l0.24897,1.23315l-14.9266,9.67283l-14.92659,-9.67283l0.24897,-1.23315c0.70047,-1.65695 2.18454,-2.90203 3.98745,-3.27105z" fill="#66ccff" fill-rule="evenodd" stroke-miterlimit="8"/></g></g></svg>