<svg version="1.1" xmlns="http://www.w3.org/2000/svg" xmlns:xlink="http://www.w3.org/1999/xlink" width="12.20102" height="12.20102" viewBox="0,0,12.20102,12.20102"><g data-paper-data="{&quot;isPaintingLayer&quot;:true}" fill-rule="nonzero" stroke="#000000" stroke-linejoin="miter" stroke-miterlimit="10" stroke-dasharray="" stroke-dashoffset="0" style="mix-blend-mode: normal"><path d="M0,12.20102v-12.20102h12.20102v12.20102z" fill-opacity="0.01176" fill="#ffffff" stroke-width="0" stroke-linecap="butt"/><path d="M6.94861,7.0225c0,-0.84822 0.68762,-1.53584 1.53584,-1.53584c0.84822,0 1.53584,0.68762 1.53584,1.53584c0,0.84822 -0.68762,1.53584 -1.53584,1.53584c-0.84822,0 -1.53584,-0.68762 -1.53584,-1.53584z" fill="none" stroke-width="0.65" stroke-linecap="butt"/><g fill="none" stroke-width="0.65"><path d="M2.18073,4.81251c0,-1.21253 0.98294,-2.19547 2.19547,-2.19547c1.21253,0 2.19547,0.98295 2.19547,2.19547c0,1.21253 -0.98294,2.19547 -2.19547,2.19547c-1.21253,0 -2.19547,-0.98294 -2.19547,-2.19547z" stroke-linecap="butt"/><path d="M2.18073,4.83332v3.72502" stroke-linecap="round"/><path d="M5.01091,7.00798l0.74498,1.55036" stroke-linecap="round"/></g><path d="M2.18073,4.81251c0,-1.21253 0.98294,-2.19547 2.19547,-2.19547c1.21253,0 2.19547,0.98295 2.19547,2.19547c0,1.21253 -0.98294,2.19547 -2.19547,2.19547c-1.21253,0 -2.19547,-0.98294 -2.19547,-2.19547z" fill="none" stroke-width="0.65" stroke-linecap="butt"/><path d="M2.18073,4.83332v3.72502" fill="none" stroke-width="0.65" stroke-linecap="round"/><path d="M5.01091,7.00798l0.74498,1.55036" fill="none" stroke-width="0.65" stroke-linecap="round"/><path d="M10.02028,5.48666v3.07168" fill="none" stroke-width="0.65" stroke-linecap="round"/></g></svg>